<svg xmlns="http://www.w3.org/2000/svg" width="53.269" height="55.15"><g data-name="Group 83" fill="#fff" stroke="#fff" stroke-width=".25"><path data-name="Path 63" d="M10.728 31.824a16.719 16.719 0 1 1 16.655 16.751 16.773 16.773 0 0 1-16.655-16.751zm23.192-7.379c-1.005.116-1.934.249-2.868.326a39.889 39.889 0 0 1-9.386-.269c-.511-.079-.736.044-.875.585a27.229 27.229 0 0 0-.548 10.8c.166 1.136.46 2.253.7 3.409a41 41 0 0 1 12.962 0 27.442 27.442 0 0 0 .016-14.852zm1.883 15.178c.563.15 1.04.266 1.509.4a10.935 10.935 0 0 1 1.4.463c.492.223.741.075 1.02-.356a14.634 14.634 0 0 0 1.717-13.113 12.672 12.672 0 0 0-2.117-3.974l-3.524 1.07a29.665 29.665 0 0 1-.006 15.509zm-16.723-.035a29.666 29.666 0 0 1-.011-15.472l-3.53-1.068a14.75 14.75 0 0 0-.208 17.291.674.674 0 0 0 .576.212c1.031-.286 2.051-.618 3.172-.965zm2.558 1.516a9.98 9.98 0 0 0 3.838 5.01 3.624 3.624 0 0 0 3.664.147c2.119-1.089 3.192-3.037 4.109-5.158a39.645 39.645 0 0 0-11.612-.003zm.009-18.5a39.334 39.334 0 0 0 11.586-.007 10.96 10.96 0 0 0-3.046-4.486 4.074 4.074 0 0 0-5.406-.058 11.069 11.069 0 0 0-3.135 4.552zm-4.756-1.126c.852.25 1.6.466 2.348.692.339.1.513 0 .667-.332.386-.828.817-1.635 1.242-2.444a7.3 7.3 0 0 1 .4-.617l.455-.691a14.639 14.639 0 0 0-5.112 3.393zm16.182-3.315c.663 1.273 1.288 2.5 1.948 3.709a.657.657 0 0 0 .535.295c.795-.184 1.573-.434 2.446-.687a14.425 14.425 0 0 0-4.93-3.316zM19.594 41.448l-2.712.778a14.024 14.024 0 0 0 4.967 3.3zm13.439 4.114a14.217 14.217 0 0 0 4.949-3.35l-2.692-.758z"/><path data-name="Path 64" d="M51.207 10.136V2.068H2.05v8.147h.74c17.7 0 21.041.046 38.742.048a6.488 6.488 0 0 1 .807.017.861.861 0 0 1 .835.889.868.868 0 0 1-.772.947 4.171 4.171 0 0 1-.8.034c-17.678 0-21-.043-38.675-.043h-.91v2.623c0 1.162-.266 1.633-.932 1.654s-.96-.459-.96-1.671V1.591C.125.363.359.125 1.559.125h50.038c1.286 0 1.528.246 1.528 1.527v45.49c0 1.039-.281 1.5-.929 1.517-.668.022-.968-.439-.968-1.527V12.113c-.661 0-1.277.005-1.894 0-.8-.009-1.21-.336-1.215-.943s.4-.934 1.2-.947c.561-.009 1.122-.009 1.682-.016a1.086 1.086 0 0 0 .206-.071z"/><path data-name="Path 65" d="M2.017 53.083H51.24c0-.416-.007-.811 0-1.2a.936.936 0 1 1 1.869-.064 18.44 18.44 0 0 1 0 2.219c-.045.71-.447.984-1.334.985q-4.341.009-8.681.007c-17.7 0-23.785 0-41.484-.005-1.232 0-1.486-.259-1.486-1.5V20.016a5.01 5.01 0 0 1 .018-.6.86.86 0 0 1 .823-.829.855.855 0 0 1 .989.712 3.339 3.339 0 0 1 .06.8v32.094c.003.278.003.561.003.89z"/><path data-name="Path 66" d="M4.042 6.058a2.829 2.829 0 1 1 5.657.016 2.829 2.829 0 0 1-5.657-.016zm2.886-.934A.929.929 0 1 0 6.84 6.98a.91.91 0 0 0 .953-.852.94.94 0 0 0-.865-1.005z"/><path data-name="Path 67" d="M17.262 6.072a2.831 2.831 0 0 1-2.822 2.813 2.831 2.831 0 1 1 .039-5.662 2.822 2.822 0 0 1 2.783 2.849zm-1.9-.024a.934.934 0 0 0-.943-.929.957.957 0 0 0-.919.966.974.974 0 0 0 .921.9.948.948 0 0 0 .941-.938z"/><path data-name="Path 68" d="M21.989 3.22a2.83 2.83 0 1 1 0 5.66 2.83 2.83 0 0 1 0-5.66zm.937 2.807a.916.916 0 0 0-.956-.909.931.931 0 0 0-.886.985.952.952 0 0 0 .929.884.935.935 0 0 0 .913-.96z"/><path data-name="Path 69" d="M29.136 32.697c0 .8.008 1.533 0 2.266-.011.752-.333 1.172-.895 1.2-.585.027-.988-.423-.993-1.186q-.021-3.23-.005-6.46c.005-.853.354-1.191 1.186-1.2q1.616-.015 3.231 0c.8.009 1.147.341 1.165 1.15.022 1.009.02 2.019 0 3.029-.015.843-.362 1.181-1.2 1.194-.799.018-1.601.007-2.489.007zm.054-3.458v1.516h1.7v-1.516z"/><path data-name="Path 70" d="M25.119 31.764c0 1.121.027 2.242-.01 3.362-.028.859-.8 1.33-1.415.865a1.233 1.233 0 0 1-.443-.839 269.627 269.627 0 0 1-.013-6.79.941.941 0 0 1 .925-1.033c.549-.008.935.394.951 1.074.023 1.119.006 2.24.005 3.361z"/></g></svg>