<svg xmlns="http://www.w3.org/2000/svg" width="54.333" height="54.333"><g data-name="Group 52"><g data-name="Group 51"><path data-name="Path 112" d="M48.9 52.522V40.75a13.6 13.6 0 0 0-13.584-13.583h-.986a10.9 10.9 0 0 0 .913-.906h.979a4.533 4.533 0 0 0 4.528-4.528v-1.6a4.068 4.068 0 0 0-.011-6.776 13.574 13.574 0 0 0-27.145 0 4.072 4.072 0 0 0 2.253 7.466h.617A10.848 10.848 0 0 0 20 27.167h-.987A13.6 13.6 0 0 0 5.433 40.75v11.772H0v1.811h54.333v-1.811zm-9.961-30.789a2.711 2.711 0 0 1-2.354 2.68 10.769 10.769 0 0 0 1.284-3.585h.617a3.931 3.931 0 0 0 .453-.046zm1.811-4.981a2.266 2.266 0 0 1-2.264 2.264h-.453v-4.527h.453a2.266 2.266 0 0 1 2.264 2.264zM16.3 19.017h-.453a2.264 2.264 0 0 1 0-4.528h.453zm-.453-6.339a3.82 3.82 0 0 0-.409.042 11.76 11.76 0 0 1 23.457 0 3.821 3.821 0 0 0-.409-.042h-.617a10.853 10.853 0 0 0-21.405 0zm20.374 1.788c-6.535-.23-10.866-2.9-10.866-5.411a.906.906 0 0 0-1.811 0c0 2.263-2.34 4.138-5.381 4.471a9.054 9.054 0 0 1 18.058.94zm-18.11 4.55v-3.672a8.368 8.368 0 0 0 6.426-3.519c1.894 2.51 6.322 4.277 11.685 4.457v2.735a9 9 0 0 1-1.828 5.433h-7.227v1.811h5.41a9.05 9.05 0 0 1-14.465-7.244zM24.367 29.5a10.538 10.538 0 0 0 5.6 0l-2.8 5.6zm1.333 6.722h-1.6l-3.622-7.244h1.6zm6.553-7.244h1.6l-3.622 7.244h-1.6zM9.961 40.75v11.772H7.244V40.75a11.776 11.776 0 0 1 11.227-11.744l3.609 7.216h-7.59a4.533 4.533 0 0 0-4.529 4.528zm32.6 11.772H11.772V40.75a2.72 2.72 0 0 1 2.717-2.717h25.355a2.72 2.72 0 0 1 2.717 2.717zm4.528 0h-2.717V40.75a4.533 4.533 0 0 0-4.528-4.528h-7.59l3.609-7.216A11.776 11.776 0 0 1 47.089 40.75z" fill="#475da6"/></g></g></svg>