<svg data-name="Group 85" xmlns="http://www.w3.org/2000/svg" width="34.77" height="54.9"><g data-name="Group 44" fill="#475da6"><path data-name="Path 71" d="M17.385 24.705a2.745 2.745 0 1 0 2.745 2.745 2.746 2.746 0 0 0-2.745-2.745zm0 3.66a.915.915 0 1 1 .915-.915.915.915 0 0 1-.915.915z"/><path data-name="Path 72" d="M17.385 21.96a5.5 5.5 0 0 0-5.49 5.49c0 1.606 1.338 3.963 3.971 7 .509.595.864.959.864.959a.914.914 0 0 0 1.294.016l.016-.016c.005-.006.354-.366.859-.954a28.073 28.073 0 0 0 2.939-3.97 6.407 6.407 0 0 0 1.036-3.036 5.4 5.4 0 0 0-1.1-3.294 5.524 5.524 0 0 0-4.389-2.195zm2.871 7.609a27.024 27.024 0 0 1-2.745 3.691l-.126.149-.133-.153c-2.209-2.547-3.527-4.718-3.527-5.806a3.66 3.66 0 0 1 6.588-2.2 3.6 3.6 0 0 1 .732 2.2 4.678 4.678 0 0 1-.789 2.119z"/><path data-name="Path 73" d="M30.2 0H4.58A4.581 4.581 0 0 0 0 4.575v45.75A4.581 4.581 0 0 0 4.575 54.9H30.2a4.581 4.581 0 0 0 4.575-4.575V4.575A4.581 4.581 0 0 0 30.2 0zm0 53.07H4.58a2.746 2.746 0 0 1-2.745-2.745V50.3a4.531 4.531 0 0 0 2.745.939H30.2a4.524 4.524 0 0 0 2.745-.939v.024A2.746 2.746 0 0 1 30.2 53.07zm0-3.66H4.58a2.746 2.746 0 0 1-2.745-2.745V4.575A2.746 2.746 0 0 1 4.58 1.83H30.2a2.746 2.746 0 0 1 2.745 2.745v42.09A2.746 2.746 0 0 1 30.2 49.41z"/></g><path data-name="Path 74" d="M14.64 3.66h1.83v1.83h-1.83z" fill="#475da6"/><path data-name="Path 75" d="M18.3 3.66h1.83v1.83H18.3z" fill="#475da6"/><path data-name="Path 76" d="M29.28 2.745h-4.575A2.746 2.746 0 0 0 21.96 5.49a.915.915 0 0 1-.915.915h-7.32a.915.915 0 0 1-.915-.915 2.746 2.746 0 0 0-2.745-2.745H5.49A2.746 2.746 0 0 0 2.745 5.49v37.515A2.746 2.746 0 0 0 5.49 45.75h23.79a2.746 2.746 0 0 0 2.745-2.745V5.49a2.746 2.746 0 0 0-2.745-2.745zm.915 30.2H25.62v-9.15h4.575zm-5.49-10.98a.915.915 0 0 0-.915.915v10.975a.915.915 0 0 0 .915.915h5.49v1.83h-10.98a.915.915 0 0 0-.915.915v6.405h-1.83v-6.405a.915.915 0 0 0-.915-.915H4.575v-1.83h7.32a.915.915 0 1 0 0-1.83h-7.32v-1.83H9.15a.915.915 0 0 0 .915-.915V23.79a.915.915 0 0 0-.915-.915H4.575v-1.83h12.81a.915.915 0 0 0 .915-.915v-8.235h1.83v8.235a.915.915 0 1 0 1.83 0v-8.235h1.83v7.32a.915.915 0 0 0 .915.915h5.49v1.83zm-20.13 2.74h3.66v4.575h-3.66zm0-12.81h11.9v7.32h-11.9zm25.62 0V18.3H25.62v-6.405zM5.49 4.575h4.575a.915.915 0 0 1 .915.915 2.746 2.746 0 0 0 2.745 2.745h7.32A2.746 2.746 0 0 0 23.79 5.49a.915.915 0 0 1 .915-.915h4.575a.915.915 0 0 1 .915.915v4.575H4.575V5.49a.915.915 0 0 1 .915-.915zm-.915 38.43V38.43h10.07v5.49h-9.15a.915.915 0 0 1-.92-.915zm25.62 0a.915.915 0 0 1-.915.915h-9.15v-5.49h10.065z" fill="#475da6"/><path data-name="Path 77" d="M14.64 46.665h5.49v1.83h-5.49z" fill="#475da6"/></svg>