<svg data-name="Group 245" xmlns="http://www.w3.org/2000/svg" width="80.37" height="72.91"><defs><clipPath id="a"><path data-name="Rectangle 190" fill="none" d="M0 0h80.37v72.91H0z"/></clipPath><clipPath id="b"><path data-name="Rectangle 189" fill="none" d="M0 0h80.37v72.91H0z"/></clipPath></defs><g data-name="Group 244"><g data-name="Group 243"><g data-name="Group 242" clip-path="url(#a)"><g data-name="Group 241"><g data-name="Group 240" clip-path="url(#b)"><g data-name="Group 239" clip-path="url(#a)" fill="#475da6" opacity=".17"><path data-name="Path 207" d="M80.26 4.87L76.3 1.55l.76-.91a5.992 5.992 0 0 1 3.2 4.23" fill-rule="evenodd"/><path data-name="Path 208" d="M27.941 0h7.65l-3.16 3.77z" fill-rule="evenodd"/><path data-name="Path 209" d="M58.38 9.61l1.55-1.87-4.82-4.02-3.8 4.57 4.79 4.02 10.95 9.19-4.43 5.28L45.5 12.44l8.15-9.74L50.46.03l.03-.03h17.22l10.68 8.98-8.56 10.23z" fill-rule="evenodd"/><path data-name="Rectangle 186" d="M14.759 22.092l7.857-9.36 8.496 7.132-7.857 9.36z"/><path data-name="Path 210" d="M22.06 0H19.6l.481.39-3.361 4.02.85.71-2.34 2.78-2.42-2.03 2.72-3.25-1.18-.99L15.71 0h-2.03l-.9 1.08 1.46 1.18-3.159 3.77 5.009 4.21 4.7-5.61-1.51-1.27z" fill-rule="evenodd"/><path data-name="Path 211" d="M80.371 55.08v5.95c-8.74 3.66-18.12 2.89-27.96-1.91l1.35-1.57-3.22-2.7-1.35 1.54c-8.421-8.88-11.97-23.8-8.091-34.15l17.4 14.45-8.12 9.66 14.83 12.58c5.519 2.85 10.3.87 15.16-3.85" fill-rule="evenodd"/><path data-name="Path 212" d="M80.371 64.14v4.71L79.06 70.3l-3.279-2.67c-4.54 4.12-10.15 6.74-17.28 4.4l-5.31-4.02-4.08 4.76-6.44-5.37-1.371 1.63-9.69-7.98-2.7 3.19-11.259-9.44 3.97-4.82-7.98-6.77 1.35-1.62 6.38 5.4 2.75-3.28-6.49-5.45L19 36.66l8.07 6.8-4.05 4.85 8.091 6.77 6.77-8.09-9.44-7.96 8.039-9.49c-.519 9.19 2.811 18.35 9.58 27.38l-2.54 3.05 4.841 4.13 2.56-3.05c10.61 5.67 20.53 6.41 29.45 3.09" fill-rule="evenodd"/><path data-name="Path 213" d="M66.229 43.186l-3.385-2.835-5.394 6.385 11.23 9.412 10.733-12.8-11.175-9.382L64.28 38.7l7.981 6.6-4.046 4.816-4.6-3.825z" fill-rule="evenodd"/><path data-name="Path 214" d="M80.371 25.65v10.13L73.85 30.3l4.071-4.84z" fill-rule="evenodd"/><path data-name="Rectangle 187" d="M0 6.743l3.787-4.511L6.8 4.762 3.014 9.273z"/><path data-name="Path 215" d="M3.729 23.865c-.688 4.321-.55 7.651 2.229 12.054l5.064-5.972z" fill-rule="evenodd"/></g></g></g></g></g></g></svg>