<svg xmlns="http://www.w3.org/2000/svg" width="54.876" height="54.881"><g data-name="Group 77" fill="#475da6" stroke="#475da6" stroke-width=".15"><path data-name="Path 54" d="M46.581 31.075a8.216 8.216 0 0 0 8.207-8.2v-1.827a9.1 9.1 0 0 0-11.468-8.805 9.952 9.952 0 0 0-10.417-4.7V2.811A2.736 2.736 0 0 0 30.167.075H2.811A2.736 2.736 0 0 0 .075 2.811v49.241a2.736 2.736 0 0 0 2.736 2.736h27.356a2.736 2.736 0 0 0 2.736-2.736V31.075h1.824V51.14a.912.912 0 0 0 .912.912h11.983a3.648 3.648 0 1 0 0-1.824H36.55V31.075h4.559v3.777a3.648 3.648 0 1 0 1.824 0v-3.777zm4.559 18.238a1.824 1.824 0 1 1-1.824 1.824 1.824 1.824 0 0 1 1.824-1.821zm-7.295-10.938a1.824 1.824 0 1 1-1.824-1.824 1.824 1.824 0 0 1 1.824 1.824zm-1.782-24.634a.912.912 0 0 0 1.12.456 7.448 7.448 0 0 1 2.486-.444 7.3 7.3 0 0 1 7.3 7.3v1.822a6.391 6.391 0 0 1-6.383 6.383H22.875a6.391 6.391 0 0 1-6.386-6.383v-1.827a6.391 6.391 0 0 1 6.386-6.383 6.2 6.2 0 0 1 2.8.661.912.912 0 0 0 1.277-.531 8.064 8.064 0 0 1 2.032-3.249 8.276 8.276 0 0 1 5.745-2.353 8.165 8.165 0 0 1 7.337 4.548zm-14.632-3.2a9.915 9.915 0 0 0-1.856 2.763 8.01 8.01 0 0 0-2.7-.462 8.216 8.216 0 0 0-8.207 8.207v1.826a8.216 8.216 0 0 0 8.207 8.2h1.824v11.858h-2.868a3.648 3.648 0 1 0 0 1.824h3.777a.912.912 0 0 0 .912-.912v-12.77h.912v18.241H5.546V7.375h21.885zm-7.3 33.3a1.824 1.824 0 1 1-1.824-1.824 1.824 1.824 0 0 1 1.829 1.828zm5.477-41.942a.912.912 0 0 1-.912.912H8.282a.912.912 0 0 1-.907-.912zm5.467 50.153a.912.912 0 0 1-.912.912H2.811a.912.912 0 0 1-.912-.912V2.811a.912.912 0 0 1 .912-.912h2.735a2.736 2.736 0 0 0 2.736 2.736h16.414a2.736 2.736 0 0 0 2.736-2.736h2.736a.912.912 0 0 1 .907.912v5.27a9.834 9.834 0 0 0-1.824.931V6.458a.912.912 0 0 0-.912-.912H4.634a.912.912 0 0 0-.912.912v43.77a.912.912 0 0 0 .912.912h23.709a.912.912 0 0 0 .912-.912V31.075h1.82z"/><path data-name="Path 55" d="M8.282 37.462h2.736v1.824a.912.912 0 0 0 .563.843.9.9 0 0 0 .349.069.912.912 0 0 0 .64-.267l5.471-5.471a.912.912 0 0 0 0-1.289l-5.471-5.473a.912.912 0 0 0-1.557.645v1.824H8.282a.912.912 0 0 0-.912.912v5.471a.912.912 0 0 0 .912.912zm.912-5.471h2.736a.912.912 0 0 0 .912-.912v-.534l3.27 3.27-3.27 3.27v-.534a.912.912 0 0 0-.912-.912H9.194z"/><path data-name="Path 56" d="M28.412 19.573a.912.912 0 0 0 .843.563h1.824v4.559a.912.912 0 0 0 .912.912h5.471a.912.912 0 0 0 .912-.912v-4.554h1.824a.912.912 0 0 0 .645-1.557l-5.471-5.471a.912.912 0 0 0-1.289 0l-5.471 5.471a.912.912 0 0 0-.2.989zm6.314-4.532l3.27 3.27h-.534a.912.912 0 0 0-.912.912v4.559h-3.648v-4.558a.912.912 0 0 0-.912-.912h-.534z"/><path data-name="Path 57" d="M10.106 14.665A2.736 2.736 0 1 0 7.37 11.93a2.736 2.736 0 0 0 2.736 2.735zm0-3.648a.912.912 0 1 1-.912.912.912.912 0 0 1 .912-.911z"/><path data-name="Path 58" d="M10.106 23.784a2.736 2.736 0 1 0-2.736-2.735 2.736 2.736 0 0 0 2.736 2.736zm0-3.648a.912.912 0 1 1-.912.912.912.912 0 0 1 .912-.911z"/><path data-name="Path 59" d="M10.106 48.404a2.736 2.736 0 1 0-2.736-2.735 2.736 2.736 0 0 0 2.736 2.735zm0-3.648a.912.912 0 1 1-.912.912.912.912 0 0 1 .912-.911z"/><path data-name="Rectangle 65" d="M28.343 2.811h1.824v1.824h-1.824z"/></g></svg>