<svg xmlns="http://www.w3.org/2000/svg" width="55.375" height="55.375"><path data-name="Path 95" d="M35.726 26.642a3.419 3.419 0 0 0-5.837-2.42l-7.924 7.924a11.669 11.669 0 0 1-3.757 2.5 7.141 7.141 0 1 0-10.214 1.258A9.836 9.836 0 0 0 0 45.55v9.825h20.542V43.917a1.623 1.623 0 0 1 .478-1.155l13.7-13.7a3.4 3.4 0 0 0 1-2.417zM13.4 37.512l.8-.112c-.23 1.082-.909 1.9-1.7 1.9-.76 0-1.42-.759-1.673-1.786zm-6.255-7.145a5.359 5.359 0 1 1 5.355 5.355 5.364 5.364 0 0 1-5.355-5.355zm26.316-2.57l-13.7 13.7a3.4 3.4 0 0 0-1 2.417v9.672H6.252V42.871H4.466v10.718h-2.68V45.55a8.049 8.049 0 0 1 7.226-8c.345 2.015 1.777 3.531 3.491 3.531 1.831 0 3.326-1.736 3.531-3.957a13.477 13.477 0 0 0 7.192-3.718l7.924-7.924a1.633 1.633 0 0 1 2.787 1.156 1.625 1.625 0 0 1-.476 1.159z" fill="#fff"/><path data-name="Path 96" d="M50.03 35.922a7.142 7.142 0 1 0-6.05 1.412 6.937 6.937 0 0 0-2.3 3.528l-1.279 4.689h-8.7a3.126 3.126 0 0 0 0 6.252h8.485v3.573h15.188v-12.68a6.976 6.976 0 0 0-5.344-6.774zm-9.839-5.558a5.359 5.359 0 1 1 5.359 5.358 5.364 5.364 0 0 1-5.359-5.355zm13.4 23.222H41.98v-1.784h.748a3.566 3.566 0 0 0 3.389-2.443l2.963-8.885-1.7-.566-2.962 8.886a1.785 1.785 0 0 1-1.7 1.222H31.706a1.34 1.34 0 0 1 0-2.679h10.06l1.638-6.005a5.183 5.183 0 0 1 10.184 1.365z" fill="#fff"/><path data-name="Path 97" d="M10.718 8.931h1.786v1.786h-1.786z" fill="#fff"/><path data-name="Path 98" d="M14.29 8.931h10.718v1.786H14.29z" fill="#fff"/><path data-name="Path 99" d="M10.718 12.504h14.29v1.786h-14.29z" fill="#fff"/><path data-name="Path 100" d="M10.718 16.076h14.29v1.786h-14.29z" fill="#fff"/><path data-name="Path 101" d="M50.016 7.145h1.786v1.786h-1.786z" fill="#fff"/><path data-name="Path 102" d="M30.367 7.145H48.23v1.786H30.367z" fill="#fff"/><path data-name="Path 103" d="M30.367 10.718h21.435v1.786H30.367z" fill="#fff"/><path data-name="Path 104" d="M30.367 14.29h21.435v1.786H30.367z" fill="#fff"/><path data-name="Path 105" d="M50.909 0H31.26a4.471 4.471 0 0 0-4.466 4.466v.893H10.718a3.576 3.576 0 0 0-3.573 3.572v8.931a3.576 3.576 0 0 0 3.573 3.573h8.038v4.349l6.523-4.349h1.516a3.587 3.587 0 0 0 3.19-1.994 4.408 4.408 0 0 0 1.275.208h2.409L40.191 24v-4.351h10.718a4.471 4.471 0 0 0 4.466-4.466V4.466A4.471 4.471 0 0 0 50.909 0zM26.794 19.649h-2.057l-4.2 2.8v-2.8h-9.819a1.788 1.788 0 0 1-1.786-1.786V8.931a1.788 1.788 0 0 1 1.786-1.786h16.076v8.038a4.437 4.437 0 0 0 1.62 3.413 1.792 1.792 0 0 1-1.62 1.053zm26.794-4.466a2.683 2.683 0 0 1-2.679 2.679H38.405v2.8l-4.2-2.8h-2.95a2.683 2.683 0 0 1-2.679-2.679V4.466a2.683 2.683 0 0 1 2.679-2.679h19.654a2.683 2.683 0 0 1 2.679 2.679z" fill="#fff"/><path data-name="Path 106" d="M30.367 3.573h1.786v1.786h-1.786z" fill="#fff"/><path data-name="Path 107" d="M33.939 3.573h1.786v1.786h-1.786z" fill="#fff"/><path data-name="Path 108" d="M37.512 3.573h14.29v1.786h-14.29z" fill="#fff"/></svg>