<svg xmlns="http://www.w3.org/2000/svg" width="32.391" height="57.556"><g data-name="Group 84"><g data-name="Group 69" fill="#fff" stroke="#fff" stroke-width=".15"><path data-name="Path 60" d="M28.778.075H3.612A3.541 3.541 0 0 0 .075 3.612v53.029a.841.841 0 1 0 1.682 0v-.957h28.877v.957a.841.841 0 0 0 1.682 0V3.612A3.541 3.541 0 0 0 28.778.075zM1.757 54.002V3.612a1.858 1.858 0 0 1 1.856-1.855h25.166a1.858 1.858 0 0 1 1.855 1.855v50.39H1.757z"/><path data-name="Path 61" d="M27.879 3.67H4.511a.841.841 0 0 0-.841.841v43.142a.841.841 0 0 0 .841.841h23.368a.841.841 0 0 0 .841-.841V4.506a.841.841 0 0 0-.841-.836zM21.53 36.026v-3.711h1.913v3.711zm-3.6 0v-3.711h1.913v3.711zm-3.6 0v-3.711h1.913v3.711zm-8.988 0v-3.711h7.306v3.711zm10.9-25.282v3.711h-1.913v-3.71zm3.6 0v3.711h-1.913v-3.71zm3.6 0v3.711h-1.913v-3.71zm3.6 0v3.711h-1.913v-3.71zm0 5.393v3.711H5.352v-3.711zm-21.686 14.5v-3.714h21.687v3.711zm10.9-9.1v3.711h-1.913V21.53zm3.6 0v3.711h-1.913V21.53zm3.6 0v3.711h-1.913V21.53zm-10.785 3.711H5.365V21.53h7.306zm12.467 0V21.53h1.913v3.711zm0 7.074h1.913v3.704h-1.913zm1.913-26.964v3.711H9.903a.841.841 0 0 0 0 1.682h2.754v3.711H5.351v-3.717h.956a.841.841 0 1 0 0-1.682h-.956V5.352zM5.365 46.818v-3.717H22.5a.841.841 0 0 0 0-1.682H5.352v-3.713h21.687v3.711h-.96a.841.841 0 1 0 0 1.682h.956v3.711z"/><path data-name="Path 62" d="M17.989 50.404h-3.6a.841.841 0 1 0 0 1.682h3.6a.841.841 0 1 0 0-1.682z"/></g></g></svg>