<svg xmlns="http://www.w3.org/2000/svg" width="178.024" height="59.902"><g fill="#fff"><g data-name="Group 148"><path data-name="Path 1" d="M50.59 16.802l-3.971 4.747 4.249 3.577-7.422 8.837-8.28-6.95 6.76-8.054-2.156-1.81 4.668-5.56z" fill-rule="evenodd"/><path data-name="Path 2" d="M23.646 30.12l2.207 1.852 5.048 4.236-2.042 2.435-7.889-6.608 3.754-4.49-1.471-1.23 3.234-3.856 1.078.9 2.283-2.828-2.727-2.283-2.334 2.778.685.571-3.142 3.742-3.006-2.524-4.378 5.225-3.41-2.866 4.236-5.048 2.727 2.3 8.092-9.652 8.283 6.951-4.756 5.67 6.012 5.048-3.945 4.718-5.276-4.432.71-.863-2.22-1.852z" fill-rule="evenodd"/><path data-name="Rectangle 3" d="M6.802 36.482l3.62-4.314 3.916 3.286-3.62 4.314z"/><path data-name="Path 3" d="M6.614 27.051l1.345-1.615 1.294 1.04-1.548 1.86.393.33-1.078 1.277-1.116-.939 1.256-1.5zm-.723-.254l2.08-2.511 2.308 1.877-1.394 1.687.7.583-2.172 2.588-2.308-1.941 1.459-1.738z" fill-rule="evenodd"/><path data-name="Path 4" d="M26.96 43.21l-8.017-6.659c-1.788 4.769-.152 11.644 3.729 15.741l.622-.71 1.484 1.243-.622.723c7.623 3.716 14.638 2.183 20.679-5.442l-1.247-1.065 3.12-3.716 2.981 2.5-3.12 3.729-.734-.623c-5.873 7.585-13.61 10.185-22.362 5.5l-1.18 1.408-2.232-1.9 1.166-1.408c-3.12-4.16-4.655-8.384-4.414-12.62l-3.7 4.376 4.351 3.666-3.129 3.73-3.729-3.12 1.869-2.232-3.717-3.134-.634.736 2.993 2.511-1.268 1.51-2.942-2.486-.622.748 3.678 3.12-1.828 2.22 5.188 4.351 1.245-1.476 4.467 3.682.634-.748 2.966 2.473 1.877-2.194 2.448 1.852c3.285 1.078 5.873-.127 7.965-2.029l1.509 1.23.622-.685 1.991 1.649a16.624 16.624 0 0 0 5.226-4.465l.8.66 3.7-4.5-1.433-1.2 2.524-2.968 2.207 1.865 4.985-5.961-2.955-2.511-1.875 2.25-5.251-4.39-8.1 9.665.748.634c-3.209 4.11-6.063 6.532-9.564 4.718l-6.837-5.8z" fill-rule="evenodd"/><path data-name="Path 5" d="M30.524 46.203l-1.56-1.306-2.486 2.942 5.175 4.335 4.947-5.9-5.15-4.325-1.826 2.182 3.678 3.044-1.865 2.22-2.118-1.763z" fill-rule="evenodd"/><path data-name="Path 6" d="M38.552 44.06l-4.515-3.793 1.877-2.232 7.23.558z" fill-rule="evenodd"/><path data-name="Path 7" d="M38.629 34.801l2.511 2.106-.837 1-1.738-1.47-.66.786-.761-.66z" fill-rule="evenodd"/><path data-name="Path 8" d="M50.59 34.42l-1.662 1.966-1.826 2.182 2.955 2.461 3.158-3.767 3.03 2.561c2.968-4.338 3.945-8.587.228-12.341l-3.158 3.767-2.816-2.359-5.414 6.367 3.171.19 3.425-4.084 2.321 1.941-1.991 2.27z" fill-rule="evenodd"/><path data-name="Rectangle 4" d="M54.208 18.778l1.444-1.72 1.865 1.566-1.444 1.72z"/><path data-name="Path 9" d="M51.554 21.978l-1.332 1.547 2.588 2.169 2.537-3.019-.825-.685.7-.812-2.981-2.5-2.539 3.021.8.672 1.928-2.3 1.319 1.192-1.256 1.5z" fill-rule="evenodd"/><path data-name="Rectangle 5" d="M48.39 13.059l2.324-2.77L55 13.888l-2.324 2.769z"/><path data-name="Rectangle 6" d="M43.543 6.376l1.85-2.205 4.392 3.685-1.85 2.205z"/><path data-name="Rectangle 7" d="M33.5 9.271l4.322-5.15 5.946 4.992-4.322 5.149z"/><path data-name="Rectangle 8" d="M34.972 2.943l2.47-2.944 4.45 3.734-2.47 2.944z"/><path data-name="Path 10" d="M27.936 9.775l4.021-4.553a9.593 9.593 0 0 1 3.031-2.285c-3.031-1.776-6.558-3.31-9.3-2.549l-4.335 5.113 1.484 1.256 4.386-5.15 2.232 1.852-2.521 2.955-.977-.748-1.217 1.458z" fill-rule="evenodd"/><path data-name="Rectangle 9" d="M7.361 19.37l1.37-1.632 1.273 1.068-1.37 1.633z"/><path data-name="Rectangle 10" d="M3.643 16.025l1.256-1.496.777.653-1.256 1.496z"/><path data-name="Rectangle 11" d="M9.278 9.359l1.86-2.215.709.595-1.86 2.215z"/><path data-name="Rectangle 12" d="M15.162 5.394l2.463-2.935 1.457 1.224-2.462 2.934z"/><path data-name="Rectangle 13" d="M0 29.408l1.745-2.079 1.39 1.166-1.745 2.08z"/><path data-name="Rectangle 14" d="M12.039 12.589l1.37-1.632 1.273 1.068-1.37 1.633z"/><path data-name="Rectangle 15" d="M18.054 14.192l3.733-4.45 1.448 1.214-3.733 4.45z"/><path data-name="Rectangle 16" d="M15.747 12.217l3.734-4.45.729.611-3.735 4.45z"/><path data-name="Path 11" d="M1.719 37.299a7.082 7.082 0 0 0 1.027 5.556l2.334-2.752z" fill-rule="evenodd"/><path data-name="Path 12" d="M58.999 27a5.781 5.781 0 0 0-.837-4.858l-2.03 2.41z" fill-rule="evenodd"/></g><path data-name="Path 13" d="M143.283 13.213h19.241q10.464 0 14.523 9.145a14.988 14.988 0 0 1 .977 5.467 14.307 14.307 0 0 1-4.756 10.654 15.52 15.52 0 0 1-7.179 3.5 22.745 22.745 0 0 1-3.31.216l-12.57.14v5.429h-6.989V35.498h19c2.486 0 4.3-.469 5.441-1.4a7.877 7.877 0 0 0 3.171-4.566 7.622 7.622 0 0 0 .19-1.471v-.723a7.824 7.824 0 0 0-2.334-5.276 7.967 7.967 0 0 0-5.378-2.144h-20.065v-6.71zm-27.46 0h23.313v7.1h-23.542a3.157 3.157 0 0 0-3.387 2.714v.507a3.158 3.158 0 0 0 1.8 2.689 3.215 3.215 0 0 0 1.154.216h11.834c3.044 0 5.1.317 6.19.939a10.273 10.273 0 0 1 5.568 5.492 12.582 12.582 0 0 1 .862 4.439c0 3.463-1.611 6.367-4.845 8.739a12.246 12.246 0 0 1-3.31 1.421 24.145 24.145 0 0 1-4.63.317h-21.979l-.025-7.116h23.617a3.615 3.615 0 0 0 3.792-2.93l.051-.647a3.468 3.468 0 0 0-2.042-3.171 3.974 3.974 0 0 0-1.852-.381h-13.267a10.555 10.555 0 0 1-8.689-4.551 9.881 9.881 0 0 1-1.509-5.112v-.939q0-5.327 5.188-8.422a10.958 10.958 0 0 1 5.707-1.304zM66.419 30.501a17.735 17.735 0 0 1 1.7-7.534 17.109 17.109 0 0 1 9.627-8.663 20.825 20.825 0 0 1 7.775-1.1h15.7v6.722H84.684q-7.477 0-10.426 6.431a10.141 10.141 0 0 0-.939 4.148 9.964 9.964 0 0 0 .939 4.148q2.949 6.431 10.426 6.431h6.925v6.7h-6.1a20.825 20.825 0 0 1-7.775-1.1 17.023 17.023 0 0 1-9.627-8.638 17.911 17.911 0 0 1-1.688-7.545zm16.7-3.336h18.1V47.79h-6.807V33.811H83.136v-6.646z"/><path data-name="Path 14" d="M174.51 52.318c.038-.013.089-.013.152-.025a1.461 1.461 0 0 1 .254-.013 1.082 1.082 0 0 1 .381.063.485.485 0 0 1 .254.19.574.574 0 0 1 .089.342.519.519 0 0 1-.089.317.608.608 0 0 1-.254.216.927.927 0 0 1-.381.076h-.419v-1.166zm-.419 2.854h.406v-1.385h.393a.679.679 0 0 1 .3.063.449.449 0 0 1 .2.2 1.414 1.414 0 0 1 .127.355c.051.2.089.368.127.495a2.1 2.1 0 0 0 .089.266h.431a2.01 2.01 0 0 1-.114-.317c-.038-.152-.089-.33-.14-.558a1.256 1.256 0 0 0-.165-.419.564.564 0 0 0-.292-.228v-.007a.886.886 0 0 0 .3-.165.786.786 0 0 0 .216-.279.828.828 0 0 0 .076-.368.969.969 0 0 0-.063-.342.648.648 0 0 0-.19-.266.72.72 0 0 0-.228-.152 1.739 1.739 0 0 0-.3-.089 3.413 3.413 0 0 0-.393-.025 1.964 1.964 0 0 0-.279.013 1.726 1.726 0 0 0-.266.025q-.133.019-.228.038v3.146zm-3.158-1.839h-1.243v-1h1.306v-.346h-1.725v3.184h1.788v-.342h-1.379v-1.154h1.243v-.342zm-6.875-1a.883.883 0 0 1 .2-.025 1.877 1.877 0 0 1 .279-.013 1.527 1.527 0 0 1 .723.152 1.011 1.011 0 0 1 .431.431 1.49 1.49 0 0 1 .14.66 1.618 1.618 0 0 1-.152.736 1 1 0 0 1-.457.457 1.813 1.813 0 0 1-.748.165h-.228c-.076 0-.14-.013-.19-.013V52.33zm-.406 2.828a2.7 2.7 0 0 0 .342.025c.127.013.254.013.406.013a2.731 2.731 0 0 0 .571-.051 2.264 2.264 0 0 0 .469-.152 1.06 1.06 0 0 0 .355-.254 1.479 1.479 0 0 0 .342-.533 2.035 2.035 0 0 0 .114-.71 1.82 1.82 0 0 0-.114-.672 1.419 1.419 0 0 0-.33-.482 1.349 1.349 0 0 0-.533-.292 2.7 2.7 0 0 0-.761-.1c-.165 0-.317.013-.469.013a3.541 3.541 0 0 0-.406.051v3.146zm-3.627-3.174v3.184h.406v-3.184zm-3.97 3.184l1.142-3.184h-.444l-.545 1.573c-.076.2-.14.406-.2.609s-.114.393-.165.571h-.013a4.748 4.748 0 0 0-.152-.571c-.063-.2-.127-.406-.19-.622l-.495-1.573h-.444l1.04 3.184h.469zm-5.619-2.9a.828.828 0 0 1 .368.076.929.929 0 0 1 .292.2 1.2 1.2 0 0 1 .2.292 1.659 1.659 0 0 1 .114.355 1.935 1.935 0 0 1 .038.381 2.136 2.136 0 0 1-.063.507 1.287 1.287 0 0 1-.2.419.992.992 0 0 1-.317.292.941.941 0 0 1-.431.1 1.042 1.042 0 0 1-.355-.063 1.085 1.085 0 0 1-.279-.19 1.126 1.126 0 0 1-.2-.279 1.689 1.689 0 0 1-.127-.355 1.97 1.97 0 0 1-.038-.393 2.1 2.1 0 0 1 .038-.406 1.266 1.266 0 0 1 .127-.368 1.2 1.2 0 0 1 .2-.292.687.687 0 0 1 .279-.19.644.644 0 0 1 .354-.09zm.013-.33a1.559 1.559 0 0 0-.6.114 1.356 1.356 0 0 0-.469.342 1.3 1.3 0 0 0-.3.533 1.94 1.94 0 0 0-.114.685 2.178 2.178 0 0 0 .1.66 1.333 1.333 0 0 0 .292.507 1.319 1.319 0 0 0 .457.33 1.451 1.451 0 0 0 .583.114 1.9 1.9 0 0 0 .469-.063 1.521 1.521 0 0 0 .406-.2 1.175 1.175 0 0 0 .317-.342 1.77 1.77 0 0 0 .216-.469 2.19 2.19 0 0 0 .076-.6 2.035 2.035 0 0 0-.1-.647 1.437 1.437 0 0 0-.292-.507 1.319 1.319 0 0 0-.457-.33 1.2 1.2 0 0 0-.584-.131zm-5.923.381c.038-.013.089-.013.152-.025a1.461 1.461 0 0 1 .254-.013 1.082 1.082 0 0 1 .381.063.485.485 0 0 1 .254.19.574.574 0 0 1 .089.342.519.519 0 0 1-.089.317.608.608 0 0 1-.254.216.927.927 0 0 1-.381.076h-.419v-1.17zm-.406 2.854h.406v-1.389h.393a.679.679 0 0 1 .3.063.449.449 0 0 1 .2.2 1.414 1.414 0 0 1 .127.355c.051.2.089.368.127.495a2.1 2.1 0 0 0 .089.266h.431a2.009 2.009 0 0 1-.114-.317c-.038-.152-.089-.33-.14-.558a1.256 1.256 0 0 0-.165-.419.564.564 0 0 0-.292-.228v-.007a.886.886 0 0 0 .3-.165.787.787 0 0 0 .216-.279.828.828 0 0 0 .076-.368.968.968 0 0 0-.063-.342.648.648 0 0 0-.19-.266.72.72 0 0 0-.228-.152 1.739 1.739 0 0 0-.3-.089 3.413 3.413 0 0 0-.393-.025 1.964 1.964 0 0 0-.279.013 1.726 1.726 0 0 0-.266.025q-.133.019-.228.038v3.146zm-4.592-2.854c.038-.013.089-.013.152-.025a1.309 1.309 0 0 1 .241-.013 1.216 1.216 0 0 1 .393.063.623.623 0 0 1 .266.2.59.59 0 0 1 .089.355.662.662 0 0 1-.1.368.56.56 0 0 1-.279.228 1.093 1.093 0 0 1-.431.076.96.96 0 0 1-.19-.013.637.637 0 0 1-.152-.025v-1.218zm-.406 2.854h.406v-1.289c.051.013.1.013.152.025h.178a1.758 1.758 0 0 0 .381-.038 1.449 1.449 0 0 0 .33-.114.784.784 0 0 0 .254-.19.859.859 0 0 0 .178-.292 1.2 1.2 0 0 0 .063-.381.927.927 0 0 0-.076-.381.756.756 0 0 0-.2-.279.782.782 0 0 0-.368-.19 1.706 1.706 0 0 0-.54-.06c-.165 0-.317.013-.444.013s-.241.025-.342.038v3.133zm-6.177-1.839h-1.243v-1h1.306v-.35h-1.728v3.184h1.788v-.342h-1.378v-1.154h1.243v-.342zm-4.731 1.408a1.357 1.357 0 0 1-.419.127 1.617 1.617 0 0 1-.254.013 1.357 1.357 0 0 1-.52-.089 1.176 1.176 0 0 1-.381-.254 1.08 1.08 0 0 1-.241-.406 1.686 1.686 0 0 1-.076-.533 1.517 1.517 0 0 1 .089-.558 1.086 1.086 0 0 1 .647-.66 1.292 1.292 0 0 1 .507-.089 1.722 1.722 0 0 1 .368.038 1.206 1.206 0 0 1 .279.089l.1-.33a.921.921 0 0 0-.152-.063 1.113 1.113 0 0 0-.254-.051 2.7 2.7 0 0 0-.342-.025 1.63 1.63 0 0 0-.672.127 1.331 1.331 0 0 0-.52.342 1.479 1.479 0 0 0-.342.533 2.269 2.269 0 0 0-.127.685 1.962 1.962 0 0 0 .114.7 1.407 1.407 0 0 0 .33.507 1.247 1.247 0 0 0 .495.3 1.934 1.934 0 0 0 .621.1 2.918 2.918 0 0 0 .355-.025c.114-.013.2-.038.292-.051a1.749 1.749 0 0 0 .2-.076zm-5.758-2.758v3.184h.406v-3.184zm-3.97 3.184l1.141-3.184h-.447l-.533 1.573c-.076.2-.14.406-.2.609s-.114.393-.165.571h-.013a4.747 4.747 0 0 0-.152-.571c-.063-.19-.127-.406-.19-.622l-.495-1.573h-.444l1.04 3.184h.457zm-5.847-2.854c.038-.013.089-.013.152-.025a1.461 1.461 0 0 1 .254-.013 1.082 1.082 0 0 1 .381.063.485.485 0 0 1 .254.19.574.574 0 0 1 .089.342.519.519 0 0 1-.089.317.608.608 0 0 1-.254.216.927.927 0 0 1-.381.076h-.406zm-.419 2.854h.406v-1.384h.393a.679.679 0 0 1 .3.063.449.449 0 0 1 .2.2 1.414 1.414 0 0 1 .127.355q.076.3.114.495a2.1 2.1 0 0 0 .089.266h.431a2.01 2.01 0 0 1-.114-.317c-.038-.152-.089-.33-.14-.558a1.256 1.256 0 0 0-.165-.419.564.564 0 0 0-.292-.228v-.007a.886.886 0 0 0 .3-.165.787.787 0 0 0 .216-.279.828.828 0 0 0 .076-.368.968.968 0 0 0-.063-.342.648.648 0 0 0-.19-.266.72.72 0 0 0-.228-.152 1.739 1.739 0 0 0-.3-.089 3.412 3.412 0 0 0-.393-.025 1.964 1.964 0 0 0-.279.013 1.726 1.726 0 0 0-.266.025q-.133.019-.228.038v3.146zm-3.158-1.839h-1.243v-1h1.306v-.345H107.4v3.184h1.788v-.342h-1.37v-1.154h1.243zm-6.634 1.687a.851.851 0 0 0 .216.1c.089.025.178.051.292.076a2.464 2.464 0 0 0 .3.025 1.448 1.448 0 0 0 .495-.076.91.91 0 0 0 .342-.2.76.76 0 0 0 .2-.292.841.841 0 0 0 .063-.355.833.833 0 0 0-.089-.406 1 1 0 0 0-.266-.3 1.532 1.532 0 0 0-.457-.228 1.9 1.9 0 0 1-.355-.165.592.592 0 0 1-.2-.19.536.536 0 0 1-.063-.254.391.391 0 0 1 .038-.165 1.057 1.057 0 0 1 .1-.152.478.478 0 0 1 .19-.114.872.872 0 0 1 .279-.038 1.726 1.726 0 0 1 .266.025.766.766 0 0 1 .2.063c.063.025.1.051.14.063l.114-.33a1.237 1.237 0 0 0-.178-.076 1.145 1.145 0 0 0-.241-.051 2.082 2.082 0 0 0-.292-.025 1.448 1.448 0 0 0-.419.063.916.916 0 0 0-.33.178.638.638 0 0 0-.2.279.755.755 0 0 0-.076.342.787.787 0 0 0 .1.393.8.8 0 0 0 .292.292 2.063 2.063 0 0 0 .444.216 1.431 1.431 0 0 1 .342.178.571.571 0 0 1 .19.2.578.578 0 0 1 .063.254.482.482 0 0 1-.076.279.574.574 0 0 1-.228.19.774.774 0 0 1-.355.063 1.9 1.9 0 0 1-.279-.025.842.842 0 0 1-.254-.076 1.124 1.124 0 0 1-.216-.1zm-7.56.152h1.776v-.342h-1.357v-2.842h-.407v3.184zm-4.782-1.319l.317-.926c.025-.1.063-.19.089-.292s.051-.19.076-.292h.012l.076.279c.025.089.051.19.089.3l.317.913h-.977zm1.053.317l.342 1h.444l-1.09-3.182h-.495l-1.078 3.184h.431l.33-1zm-6.291-.52h.342a1.278 1.278 0 0 1 .317.038.845.845 0 0 1 .266.114.509.509 0 0 1 .178.19.6.6 0 0 1 .063.279.661.661 0 0 1-.063.292.509.509 0 0 1-.178.19.615.615 0 0 1-.266.1.827.827 0 0 1-.3.025h-.2c-.063 0-.1-.013-.152-.013v-1.215zm0-1.344c.038-.013.076-.013.14-.025s.14-.013.228-.013a1.075 1.075 0 0 1 .368.051.483.483 0 0 1 .241.165.458.458 0 0 1 .089.3.477.477 0 0 1-.317.469 1.051 1.051 0 0 1-.368.076h-.368v-1.023zm-.406 2.854c.063.013.152.013.266.025a3.333 3.333 0 0 0 .381.013 2.481 2.481 0 0 0 .66-.076 1.132 1.132 0 0 0 .444-.228.729.729 0 0 0 .19-.279.877.877 0 0 0 .013-.685.965.965 0 0 0-.152-.241 1.385 1.385 0 0 0-.216-.165.85.85 0 0 0-.228-.089v-.013a1.089 1.089 0 0 0 .292-.165 1.137 1.137 0 0 0 .19-.241.752.752 0 0 0 .063-.292.667.667 0 0 0-.076-.33.679.679 0 0 0-.19-.228.665.665 0 0 0-.228-.127.983.983 0 0 0-.292-.076 2.953 2.953 0 0 0-.368-.025 1.965 1.965 0 0 0-.279.013 1.561 1.561 0 0 0-.254.025c-.076.013-.152.025-.216.038zm-4.477-2.892a.828.828 0 0 1 .368.076.929.929 0 0 1 .292.2 1.2 1.2 0 0 1 .2.292 1.66 1.66 0 0 1 .114.355 1.936 1.936 0 0 1 .038.381 2.136 2.136 0 0 1-.063.507 1.287 1.287 0 0 1-.2.419.993.993 0 0 1-.317.292.941.941 0 0 1-.431.1 1.041 1.041 0 0 1-.355-.063 1.085 1.085 0 0 1-.279-.19 1.126 1.126 0 0 1-.2-.279 1.689 1.689 0 0 1-.127-.355 1.969 1.969 0 0 1-.038-.393 2.1 2.1 0 0 1 .038-.406 1.266 1.266 0 0 1 .127-.368 1.2 1.2 0 0 1 .2-.292.687.687 0 0 1 .279-.19.673.673 0 0 1 .354-.086zm.025-.33a1.559 1.559 0 0 0-.6.114 1.356 1.356 0 0 0-.469.342 1.3 1.3 0 0 0-.3.533 1.939 1.939 0 0 0-.114.685 2.179 2.179 0 0 0 .1.66 1.334 1.334 0 0 0 .292.507 1.319 1.319 0 0 0 .457.33 1.451 1.451 0 0 0 .583.114 1.9 1.9 0 0 0 .469-.063 1.521 1.521 0 0 0 .406-.2 1.175 1.175 0 0 0 .317-.342 1.77 1.77 0 0 0 .216-.469 2.19 2.19 0 0 0 .076-.6 2.036 2.036 0 0 0-.1-.647 1.437 1.437 0 0 0-.292-.507 1.319 1.319 0 0 0-.457-.33 1.27 1.27 0 0 0-.584-.127zm-5.822 3.234h1.776v-.342h-1.357v-2.842h-.407v3.184zm-3.12-1.674h-1.053v.33h.647v.951a1.308 1.308 0 0 1-.2.063 2.372 2.372 0 0 1-.342.025 1.292 1.292 0 0 1-.507-.089 1.165 1.165 0 0 1-.393-.254 1.1 1.1 0 0 1-.254-.406 1.492 1.492 0 0 1-.089-.545 1.381 1.381 0 0 1 .089-.533 1.465 1.465 0 0 1 .254-.406 1.1 1.1 0 0 1 .406-.254 1.381 1.381 0 0 1 .533-.089 2.15 2.15 0 0 1 .292.013 1.018 1.018 0 0 1 .228.051c.063.025.127.038.19.063l.1-.33a.668.668 0 0 0-.19-.063 1.422 1.422 0 0 0-.266-.051 2.7 2.7 0 0 0-.342-.025 1.882 1.882 0 0 0-.723.127 1.492 1.492 0 0 0-.888.863 2.176 2.176 0 0 0-.127.66 2.8 2.8 0 0 0 .051.469 1.923 1.923 0 0 0 .152.406 1 1 0 0 0 .241.317 1.272 1.272 0 0 0 .533.317 2.179 2.179 0 0 0 .66.1c.14 0 .279-.013.406-.025s.241-.038.33-.063a1.839 1.839 0 0 0 .241-.076v-1.546z"/></g></svg>