<svg id="support" xmlns="http://www.w3.org/2000/svg" width="54.333" height="54.333" viewBox="0 0 54.333 54.333">
  <g id="Group_46" data-name="Group 46" transform="translate(20.828 17.205)">
    <g id="Group_45" data-name="Group 45">
      <path id="Path_109" data-name="Path 109" d="M186.717,152A2.72,2.72,0,0,0,184,154.717h1.811a.906.906,0,0,1,1.811,0h1.811A2.72,2.72,0,0,0,186.717,152Z" transform="translate(-184 -152)" fill="#fff"/>
    </g>
  </g>
  <g id="Group_48" data-name="Group 48" transform="translate(28.072 17.205)">
    <g id="Group_47" data-name="Group 47">
      <path id="Path_110" data-name="Path 110" d="M250.717,152A2.72,2.72,0,0,0,248,154.717h1.811a.906.906,0,0,1,1.811,0h1.811A2.72,2.72,0,0,0,250.717,152Z" transform="translate(-248 -152)" fill="#fff"/>
    </g>
  </g>
  <g id="Group_50" data-name="Group 50" transform="translate(23.544 41.655)">
    <g id="Group_49" data-name="Group 49">
      <path id="Path_111" data-name="Path 111" d="M211.622,368a3.622,3.622,0,1,0,3.622,3.622A3.626,3.626,0,0,0,211.622,368Zm0,5.433a1.811,1.811,0,1,1,1.811-1.811A1.813,1.813,0,0,1,211.622,373.433Z" transform="translate(-208 -368)" fill="#fff"/>
    </g>
  </g>
  <g id="Group_52" data-name="Group 52" transform="translate(0 0)">
    <g id="Group_51" data-name="Group 51">
      <path id="Path_112" data-name="Path 112" d="M48.9,52.522V40.75A13.6,13.6,0,0,0,35.316,27.167H34.33a10.9,10.9,0,0,0,.913-.906h.979a4.533,4.533,0,0,0,4.528-4.528v-1.6a4.068,4.068,0,0,0-.011-6.776,13.574,13.574,0,0,0-27.145,0,4.072,4.072,0,0,0,2.253,7.466h.617A10.848,10.848,0,0,0,20,27.167h-.987A13.6,13.6,0,0,0,5.433,40.75V52.522H0v1.811H54.333V52.522ZM38.939,21.733a2.711,2.711,0,0,1-2.354,2.68,10.769,10.769,0,0,0,1.284-3.585h.617a3.931,3.931,0,0,0,.453-.046Zm1.811-4.981a2.266,2.266,0,0,1-2.264,2.264h-.453V14.489h.453A2.266,2.266,0,0,1,40.75,16.753ZM16.3,19.017h-.453a2.264,2.264,0,0,1,0-4.528H16.3Zm-.453-6.339a3.82,3.82,0,0,0-.409.042,11.76,11.76,0,0,1,23.457,0,3.821,3.821,0,0,0-.409-.042h-.617a10.853,10.853,0,0,0-21.405,0Zm20.374,1.788c-6.535-.23-10.866-2.9-10.866-5.411a.906.906,0,0,0-1.811,0c0,2.263-2.34,4.138-5.381,4.471a9.054,9.054,0,0,1,18.058.94Zm-18.11,4.55V15.344a8.368,8.368,0,0,0,6.426-3.519c1.894,2.51,6.322,4.277,11.685,4.457v2.735a9,9,0,0,1-1.828,5.433H27.167v1.811h5.41a9.05,9.05,0,0,1-14.465-7.244ZM24.367,29.5a10.538,10.538,0,0,0,5.6,0l-2.8,5.6ZM25.7,36.222H24.1l-3.622-7.244h1.6Zm6.553-7.244h1.6l-3.622,7.244h-1.6ZM9.961,40.75V52.522H7.244V40.75A11.776,11.776,0,0,1,18.471,29.006l3.609,7.216h-7.59A4.533,4.533,0,0,0,9.961,40.75Zm32.6,11.772H11.772V40.75a2.72,2.72,0,0,1,2.717-2.717H39.844a2.72,2.72,0,0,1,2.717,2.717Zm4.528,0H44.372V40.75a4.533,4.533,0,0,0-4.528-4.528h-7.59l3.609-7.216A11.776,11.776,0,0,1,47.089,40.75Z" transform="translate(0 0)" fill="#fff"/>
    </g>
  </g>
  <g id="Group_54" data-name="Group 54" transform="translate(38.939 44.372)">
    <g id="Group_53" data-name="Group 53">
      <rect id="Rectangle_66" data-name="Rectangle 66" width="1.811" height="6.339" fill="#fff"/>
    </g>
  </g>
  <g id="Group_56" data-name="Group 56" transform="translate(38.939 40.75)">
    <g id="Group_55" data-name="Group 55">
      <rect id="Rectangle_67" data-name="Rectangle 67" width="1.811" height="1.811" fill="#fff"/>
    </g>
  </g>
  <g id="Group_58" data-name="Group 58" transform="translate(47.089 8.15)">
    <g id="Group_57" data-name="Group 57">
      <rect id="Rectangle_68" data-name="Rectangle 68" width="1.811" height="1.811" fill="#fff"/>
    </g>
  </g>
  <g id="Group_60" data-name="Group 60" transform="translate(47.089 11.772)">
    <g id="Group_59" data-name="Group 59">
      <rect id="Rectangle_69" data-name="Rectangle 69" width="1.811" height="1.811" fill="#fff"/>
    </g>
  </g>
  <g id="Group_62" data-name="Group 62" transform="translate(47.089 15.394)">
    <g id="Group_61" data-name="Group 61">
      <rect id="Rectangle_70" data-name="Rectangle 70" width="1.811" height="1.811" fill="#fff"/>
    </g>
  </g>
  <g id="Group_64" data-name="Group 64" transform="translate(5.433 19.017)">
    <g id="Group_63" data-name="Group 63">
      <rect id="Rectangle_71" data-name="Rectangle 71" width="1.811" height="1.811" fill="#fff"/>
    </g>
  </g>
  <g id="Group_66" data-name="Group 66" transform="translate(5.433 22.639)">
    <g id="Group_65" data-name="Group 65">
      <rect id="Rectangle_72" data-name="Rectangle 72" width="1.811" height="1.811" fill="#fff"/>
    </g>
  </g>
  <g id="Group_68" data-name="Group 68" transform="translate(5.433 26.261)">
    <g id="Group_67" data-name="Group 67">
      <rect id="Rectangle_73" data-name="Rectangle 73" width="1.811" height="1.811" fill="#fff"/>
    </g>
  </g>
</svg>
