<svg xmlns="http://www.w3.org/2000/svg" width="54.876" height="54.881" viewBox="0 0 54.876 54.881">
  <g id="Group_77" data-name="Group 77" transform="translate(0.075 0.075)">
    <path id="Path_54" data-name="Path 54" d="M48.506,33A8.216,8.216,0,0,0,56.713,24.8V22.973a9.1,9.1,0,0,0-11.468-8.805,9.952,9.952,0,0,0-10.417-4.7V4.736A2.736,2.736,0,0,0,32.092,2H4.736A2.736,2.736,0,0,0,2,4.736V53.977a2.736,2.736,0,0,0,2.736,2.736H32.092a2.736,2.736,0,0,0,2.736-2.736V33h1.824V53.065a.912.912,0,0,0,.912.912H49.547a3.648,3.648,0,1,0,0-1.824H38.475V33h4.559v3.777a3.648,3.648,0,1,0,1.824,0V33Zm4.559,18.238a1.824,1.824,0,1,1-1.824,1.824A1.824,1.824,0,0,1,53.065,51.241ZM45.77,40.3a1.824,1.824,0,1,1-1.824-1.824A1.824,1.824,0,0,1,45.77,40.3ZM43.988,15.666a.912.912,0,0,0,1.12.456,7.448,7.448,0,0,1,2.486-.444,7.3,7.3,0,0,1,7.3,7.3V24.8a6.391,6.391,0,0,1-6.383,6.383H24.8A6.391,6.391,0,0,1,18.414,24.8V22.973A6.391,6.391,0,0,1,24.8,16.59a6.2,6.2,0,0,1,2.8.661.912.912,0,0,0,1.277-.531,8.064,8.064,0,0,1,2.032-3.249,8.276,8.276,0,0,1,5.745-2.353,8.165,8.165,0,0,1,7.337,4.548Zm-14.632-3.2A9.915,9.915,0,0,0,27.5,15.229a8.01,8.01,0,0,0-2.7-.462,8.216,8.216,0,0,0-8.207,8.207V24.8A8.216,8.216,0,0,0,24.8,33h1.824V44.858H23.756a3.648,3.648,0,1,0,0,1.824h3.777a.912.912,0,0,0,.912-.912V33h.912V51.241H7.471V9.3H29.356Zm-7.3,33.3a1.824,1.824,0,1,1-1.824-1.824A1.824,1.824,0,0,1,22.061,45.77ZM27.533,3.824a.912.912,0,0,1-.912.912H10.207A.912.912,0,0,1,9.3,3.824ZM33,53.977a.912.912,0,0,1-.912.912H4.736a.912.912,0,0,1-.912-.912V4.736a.912.912,0,0,1,.912-.912H7.471a2.736,2.736,0,0,0,2.736,2.736H26.621a2.736,2.736,0,0,0,2.736-2.736h2.736A.912.912,0,0,1,33,4.736v5.27a9.834,9.834,0,0,0-1.824.931V8.383a.912.912,0,0,0-.912-.912H6.559a.912.912,0,0,0-.912.912v43.77a.912.912,0,0,0,.912.912H30.268a.912.912,0,0,0,.912-.912V33H33Z" transform="translate(-2 -2)" fill="#fff" stroke="#fff" stroke-width="0.15"/>
    <path id="Path_55" data-name="Path 55" d="M10.912,42.031h2.736v1.824a.912.912,0,0,0,.563.843.9.9,0,0,0,.349.069A.912.912,0,0,0,15.2,44.5l5.471-5.471a.912.912,0,0,0,0-1.289L15.2,32.267a.912.912,0,0,0-1.557.645v1.824H10.912a.912.912,0,0,0-.912.912v5.471A.912.912,0,0,0,10.912,42.031Zm.912-5.471h2.736a.912.912,0,0,0,.912-.912v-.534l3.27,3.27-3.27,3.27v-.534a.912.912,0,0,0-.912-.912H11.824Z" transform="translate(-2.705 -4.644)" fill="#fff" stroke="#fff" stroke-width="0.15"/>
    <path id="Path_56" data-name="Path 56" d="M33.069,22.732a.912.912,0,0,0,.843.563h1.824v4.559a.912.912,0,0,0,.912.912h5.471a.912.912,0,0,0,.912-.912V23.3h1.824a.912.912,0,0,0,.645-1.557l-5.471-5.471a.912.912,0,0,0-1.289,0l-5.471,5.471A.912.912,0,0,0,33.069,22.732ZM39.383,18.2l3.27,3.27h-.534a.912.912,0,0,0-.912.912v4.559H37.559V22.383a.912.912,0,0,0-.912-.912h-.534Z" transform="translate(-4.732 -3.234)" fill="#fff" stroke="#fff" stroke-width="0.15"/>
    <path id="Path_57" data-name="Path 57" d="M12.736,17.471A2.736,2.736,0,1,0,10,14.736,2.736,2.736,0,0,0,12.736,17.471Zm0-3.648a.912.912,0,1,1-.912.912A.912.912,0,0,1,12.736,13.824Z" transform="translate(-2.705 -2.881)" fill="#fff" stroke="#fff" stroke-width="0.15"/>
    <path id="Path_58" data-name="Path 58" d="M12.736,27.471A2.736,2.736,0,1,0,10,24.736a2.736,2.736,0,0,0,2.736,2.736Zm0-3.648a.912.912,0,1,1-.912.912A.912.912,0,0,1,12.736,23.824Z" transform="translate(-2.705 -3.762)" fill="#fff" stroke="#fff" stroke-width="0.15"/>
    <path id="Path_59" data-name="Path 59" d="M12.736,54.471A2.736,2.736,0,1,0,10,51.736,2.736,2.736,0,0,0,12.736,54.471Zm0-3.648a.912.912,0,1,1-.912.912A.912.912,0,0,1,12.736,50.824Z" transform="translate(-2.705 -6.142)" fill="#fff" stroke="#fff" stroke-width="0.15"/>
    <rect id="Rectangle_65" data-name="Rectangle 65" width="1.824" height="1.824" transform="translate(28.268 2.736)" fill="#fff" stroke="#fff" stroke-width="0.15"/>
  </g>
</svg>
