<svg id="Group_85" data-name="Group 85" xmlns="http://www.w3.org/2000/svg" width="34.77" height="54.9" viewBox="0 0 34.77 54.9">
  <g id="Group_44" data-name="Group 44" transform="translate(0 0)">
    <path id="Path_71" data-name="Path 71" d="M234.745,240a2.745,2.745,0,1,0,2.745,2.745A2.746,2.746,0,0,0,234.745,240Zm0,3.66a.915.915,0,1,1,.915-.915A.915.915,0,0,1,234.745,243.66Z" transform="translate(-217.36 -215.295)" fill="#475da6"/>
    <path id="Path_72" data-name="Path 72" d="M213.49,216a5.5,5.5,0,0,0-5.49,5.49c0,1.606,1.338,3.963,3.971,7,.509.595.864.959.864.959a.914.914,0,0,0,1.294.016c.006-.006.011-.01.016-.016s.354-.366.859-.954a28.073,28.073,0,0,0,2.939-3.97,6.407,6.407,0,0,0,1.036-3.036,5.4,5.4,0,0,0-1.1-3.294A5.524,5.524,0,0,0,213.49,216Zm2.871,7.609a27.024,27.024,0,0,1-2.745,3.691l-.126.149-.133-.153c-2.209-2.547-3.527-4.718-3.527-5.806a3.66,3.66,0,0,1,6.588-2.2,3.6,3.6,0,0,1,.732,2.2A4.678,4.678,0,0,1,216.361,223.609Z" transform="translate(-196.105 -194.04)" fill="#475da6"/>
    <path id="Path_73" data-name="Path 73" d="M134.2,24h-25.62A4.581,4.581,0,0,0,104,28.575v45.75a4.581,4.581,0,0,0,4.575,4.575H134.2a4.581,4.581,0,0,0,4.575-4.575V28.575A4.581,4.581,0,0,0,134.2,24Zm0,53.07h-25.62a2.746,2.746,0,0,1-2.745-2.745h0V74.3a4.531,4.531,0,0,0,2.745.939H134.2a4.524,4.524,0,0,0,2.745-.939v.024A2.746,2.746,0,0,1,134.2,77.07Zm0-3.66h-25.62a2.746,2.746,0,0,1-2.745-2.745V28.575a2.746,2.746,0,0,1,2.745-2.745H134.2a2.746,2.746,0,0,1,2.745,2.745v42.09A2.746,2.746,0,0,1,134.2,73.41Z" transform="translate(-104 -24)" fill="#475da6"/>
  </g>
  <path id="Path_74" data-name="Path 74" d="M232,56h1.83v1.83H232Z" transform="translate(-217.36 -52.34)" fill="#475da6"/>
  <path id="Path_75" data-name="Path 75" d="M264,56h1.83v1.83H264Z" transform="translate(-245.7 -52.34)" fill="#475da6"/>
  <path id="Path_76" data-name="Path 76" d="M154.535,48H149.96a2.746,2.746,0,0,0-2.745,2.745.915.915,0,0,1-.915.915h-7.32a.915.915,0,0,1-.915-.915A2.746,2.746,0,0,0,135.32,48h-4.575A2.746,2.746,0,0,0,128,50.745V88.26a2.746,2.746,0,0,0,2.745,2.745h23.79a2.746,2.746,0,0,0,2.745-2.745V50.745A2.746,2.746,0,0,0,154.535,48Zm.915,30.2h-4.575v-9.15h4.575Zm-5.49-10.98a.915.915,0,0,0-.915.915V79.11a.915.915,0,0,0,.915.915h5.49v1.83H144.47a.915.915,0,0,0-.915.915v6.405h-1.83V82.77a.915.915,0,0,0-.915-.915H129.83v-1.83h7.32a.915.915,0,1,0,0-1.83h-7.32v-1.83h4.575a.915.915,0,0,0,.915-.915V69.045a.915.915,0,0,0-.915-.915H129.83V66.3h12.81a.915.915,0,0,0,.915-.915V57.15h1.83v8.235a.915.915,0,1,0,1.83,0V57.15h1.83v7.32a.915.915,0,0,0,.915.915h5.49v1.83ZM129.83,69.96h3.66v4.575h-3.66Zm0-12.81h11.9v7.32h-11.9Zm25.62,0v6.405h-4.575V57.15Zm-24.705-7.32h4.575a.915.915,0,0,1,.915.915,2.746,2.746,0,0,0,2.745,2.745h7.32a2.746,2.746,0,0,0,2.745-2.745.915.915,0,0,1,.915-.915h4.575a.915.915,0,0,1,.915.915V55.32H129.83V50.745A.915.915,0,0,1,130.745,49.83Zm-.915,38.43V83.685H139.9v5.49h-9.15A.915.915,0,0,1,129.83,88.26Zm25.62,0a.915.915,0,0,1-.915.915h-9.15v-5.49H155.45Z" transform="translate(-125.255 -45.255)" fill="#475da6"/>
  <path id="Path_77" data-name="Path 77" d="M232,432h5.49v1.83H232Z" transform="translate(-217.36 -385.335)" fill="#475da6"/>
</svg>
