<svg id="discussion" xmlns="http://www.w3.org/2000/svg" width="55.375" height="55.375" viewBox="0 0 55.375 55.375">
  <path id="Path_95" data-name="Path 95" d="M36.726,30.42A3.419,3.419,0,0,0,30.889,28l-7.924,7.924a11.669,11.669,0,0,1-3.757,2.5A7.141,7.141,0,1,0,8.994,39.682,9.836,9.836,0,0,0,1,49.328v9.825H21.542V47.695a1.623,1.623,0,0,1,.478-1.155l13.7-13.7a3.4,3.4,0,0,0,1-2.417ZM14.4,41.29l.8-.112c-.23,1.082-.909,1.9-1.7,1.9-.76,0-1.42-.759-1.673-1.786ZM8.145,34.145A5.359,5.359,0,1,1,13.5,39.5,5.364,5.364,0,0,1,8.145,34.145Zm26.316-2.57-13.7,13.7a3.4,3.4,0,0,0-1,2.417v9.672H7.252V46.649H5.466V57.367H2.786V49.328a8.049,8.049,0,0,1,7.226-8c.345,2.015,1.777,3.531,3.491,3.531,1.831,0,3.326-1.736,3.531-3.957a13.477,13.477,0,0,0,7.192-3.718l7.924-7.924a1.633,1.633,0,0,1,2.787,1.156A1.625,1.625,0,0,1,34.461,31.575Z" transform="translate(-1 -3.778)" fill="#475da6"/>
  <path id="Path_96" data-name="Path 96" d="M54.45,39.7A7.142,7.142,0,1,0,48.4,41.112a6.937,6.937,0,0,0-2.3,3.528l-1.279,4.689h-8.7a3.126,3.126,0,0,0,0,6.252h8.485v3.573H59.794V46.474A6.976,6.976,0,0,0,54.45,39.7Zm-9.839-5.558A5.359,5.359,0,1,1,49.97,39.5,5.364,5.364,0,0,1,44.611,34.145Zm13.4,23.222H46.4V55.58h.748a3.566,3.566,0,0,0,3.389-2.443L53.5,44.252,51.8,43.686l-2.962,8.886a1.785,1.785,0,0,1-1.7,1.222H36.126a1.34,1.34,0,0,1,0-2.679h10.06l1.638-6.005a5.183,5.183,0,0,1,10.184,1.365Z" transform="translate(-4.42 -3.778)" fill="#475da6"/>
  <path id="Path_97" data-name="Path 97" d="M13,11h1.786v1.786H13Z" transform="translate(-2.282 -2.069)" fill="#475da6"/>
  <path id="Path_98" data-name="Path 98" d="M17,11H27.718v1.786H17Z" transform="translate(-2.71 -2.069)" fill="#475da6"/>
  <path id="Path_99" data-name="Path 99" d="M13,15H27.29v1.786H13Z" transform="translate(-2.282 -2.496)" fill="#475da6"/>
  <path id="Path_100" data-name="Path 100" d="M13,19H27.29v1.786H13Z" transform="translate(-2.282 -2.924)" fill="#475da6"/>
  <path id="Path_101" data-name="Path 101" d="M57,9h1.786v1.786H57Z" transform="translate(-6.984 -1.855)" fill="#475da6"/>
  <path id="Path_102" data-name="Path 102" d="M35,9H52.863v1.786H35Z" transform="translate(-4.633 -1.855)" fill="#475da6"/>
  <path id="Path_103" data-name="Path 103" d="M35,13H56.435v1.786H35Z" transform="translate(-4.633 -2.282)" fill="#475da6"/>
  <path id="Path_104" data-name="Path 104" d="M35,17H56.435v1.786H35Z" transform="translate(-4.633 -2.71)" fill="#475da6"/>
  <path id="Path_105" data-name="Path 105" d="M52.764,1H33.115a4.471,4.471,0,0,0-4.466,4.466v.893H12.573A3.576,3.576,0,0,0,9,9.931v8.931a3.576,3.576,0,0,0,3.573,3.573h8.038v4.349l6.523-4.349h1.516a3.587,3.587,0,0,0,3.19-1.994,4.408,4.408,0,0,0,1.275.208h2.409L42.046,25V20.649H52.764a4.471,4.471,0,0,0,4.466-4.466V5.466A4.471,4.471,0,0,0,52.764,1ZM28.649,20.649H26.592l-4.2,2.8v-2.8H12.573a1.788,1.788,0,0,1-1.786-1.786V9.931a1.788,1.788,0,0,1,1.786-1.786H28.649v8.038a4.437,4.437,0,0,0,1.62,3.413A1.792,1.792,0,0,1,28.649,20.649Zm26.794-4.466a2.683,2.683,0,0,1-2.679,2.679H40.26v2.8l-4.2-2.8h-2.95a2.683,2.683,0,0,1-2.679-2.679V5.466a2.683,2.683,0,0,1,2.679-2.679H52.764a2.683,2.683,0,0,1,2.679,2.679Z" transform="translate(-1.855 -1)" fill="#475da6"/>
  <path id="Path_106" data-name="Path 106" d="M35,5h1.786V6.786H35Z" transform="translate(-4.633 -1.427)" fill="#475da6"/>
  <path id="Path_107" data-name="Path 107" d="M39,5h1.786V6.786H39Z" transform="translate(-5.061 -1.427)" fill="#475da6"/>
  <path id="Path_108" data-name="Path 108" d="M43,5H57.29V6.786H43Z" transform="translate(-5.488 -1.427)" fill="#475da6"/>
</svg>
