<svg id="Group_245" data-name="Group 245" xmlns="http://www.w3.org/2000/svg" xmlns:xlink="http://www.w3.org/1999/xlink" width="80.37" height="72.91" viewBox="0 0 80.37 72.91">
  <defs>
    <clipPath id="clip-path">
      <rect id="Rectangle_190" data-name="Rectangle 190" width="80.37" height="72.91" fill="none"/>
    </clipPath>
    <clipPath id="clip-path-2">
      <rect id="Rectangle_189" data-name="Rectangle 189" width="80.37" height="72.91" transform="translate(0 0)" fill="none"/>
    </clipPath>
  </defs>
  <g id="Group_244" data-name="Group 244" clip-path="url(#clip-path)">
    <g id="Group_243" data-name="Group 243">
      <g id="Group_242" data-name="Group 242" clip-path="url(#clip-path-2)">
        <g id="Group_241" data-name="Group 241" opacity="0.17">
          <g id="Group_240" data-name="Group 240">
            <g id="Group_239" data-name="Group 239" clip-path="url(#clip-path)">
              <path id="Path_207" data-name="Path 207" d="M80.26,4.87,76.3,1.55l.76-.91a5.992,5.992,0,0,1,3.2,4.23" fill="#475da6" fill-rule="evenodd"/>
              <path id="Path_208" data-name="Path 208" d="M27.941,0h7.65l-3.16,3.77Z" fill="#475da6" fill-rule="evenodd"/>
              <path id="Path_209" data-name="Path 209" d="M58.38,9.61l1.55-1.87L55.11,3.72l-3.8,4.57,4.79,4.02L67.05,21.5l-4.43,5.28L45.5,12.44,53.65,2.7,50.46.03,50.49,0H67.71L78.39,8.98,69.83,19.21Z" fill="#475da6" fill-rule="evenodd"/>
              <rect id="Rectangle_186" data-name="Rectangle 186" width="12.219" height="11.091" transform="matrix(0.643, -0.766, 0.766, 0.643, 14.759, 22.092)" fill="#475da6"/>
              <path id="Path_210" data-name="Path 210" d="M22.06,0H19.6l.481.39L16.72,4.41l.85.71L15.23,7.9,12.81,5.87l2.72-3.25-1.18-.99L15.71,0H13.68l-.9,1.08,1.46,1.18L11.081,6.03l5.009,4.21,4.7-5.61L19.28,3.36Z" fill="#475da6" fill-rule="evenodd"/>
              <path id="Path_211" data-name="Path 211" d="M80.371,55.08v5.95c-8.74,3.66-18.12,2.89-27.96-1.91l1.35-1.57-3.22-2.7-1.35,1.54c-8.421-8.88-11.97-23.8-8.091-34.15L58.5,36.69l-8.12,9.66,14.83,12.58c5.519,2.85,10.3.87,15.16-3.85" fill="#475da6" fill-rule="evenodd"/>
              <path id="Path_212" data-name="Path 212" d="M80.371,64.14v4.71L79.06,70.3l-3.279-2.67c-4.54,4.12-10.15,6.74-17.28,4.4l-5.31-4.02-4.08,4.76-6.44-5.37L41.3,69.03l-9.69-7.98-2.7,3.19L17.651,54.8l3.97-4.82-7.98-6.77,1.35-1.62,6.38,5.4,2.75-3.28-6.49-5.45L19,36.66l8.07,6.8L23.02,48.31l8.091,6.77,6.77-8.09-9.44-7.96,8.039-9.49c-.519,9.19,2.811,18.35,9.58,27.38l-2.54,3.05,4.841,4.13,2.56-3.05c10.61,5.67,20.53,6.41,29.45,3.09" fill="#475da6" fill-rule="evenodd"/>
              <path id="Path_213" data-name="Path 213" d="M66.229,43.186l-3.385-2.835L57.45,46.736l11.23,9.412,10.733-12.8L68.238,33.966,64.28,38.7l7.981,6.6-4.046,4.816-4.6-3.825Z" fill="#475da6" fill-rule="evenodd"/>
              <path id="Path_214" data-name="Path 214" d="M80.371,25.65V35.78L73.85,30.3l4.071-4.84Z" fill="#475da6" fill-rule="evenodd"/>
              <rect id="Rectangle_187" data-name="Rectangle 187" width="5.889" height="3.935" transform="matrix(0.643, -0.766, 0.766, 0.643, 0, 6.743)" fill="#475da6"/>
              <path id="Path_215" data-name="Path 215" d="M3.729,23.865c-.688,4.321-.55,7.651,2.229,12.054l5.064-5.972Z" fill="#475da6" fill-rule="evenodd"/>
            </g>
          </g>
        </g>
      </g>
    </g>
  </g>
</svg>
