<svg xmlns="http://www.w3.org/2000/svg" width="32.391" height="57.556" viewBox="0 0 32.391 57.556">
  <g id="Group_84" data-name="Group 84" transform="translate(0.075 0.075)">
    <g id="Group_69" data-name="Group 69" transform="translate(0 0)">
      <path id="Path_60" data-name="Path 60" d="M140.928,0H115.762a3.541,3.541,0,0,0-3.537,3.537V56.566a.841.841,0,1,0,1.682,0v-.957h28.877v.957a.841.841,0,0,0,1.682,0V3.537A3.541,3.541,0,0,0,140.928,0ZM113.907,53.927V3.537a1.858,1.858,0,0,1,1.856-1.855h25.166a1.858,1.858,0,0,1,1.855,1.855v50.39H113.907Z" transform="translate(-112.225 0)" fill="#fff" stroke="#fff" stroke-width="0.15"/>
      <path id="Path_61" data-name="Path 61" d="M168.5,32.064H145.132a.841.841,0,0,0-.841.841V76.047a.841.841,0,0,0,.841.841H168.5a.841.841,0,0,0,.841-.841V32.9A.841.841,0,0,0,168.5,32.064ZM162.151,64.42V60.709h1.913V64.42Zm-3.6,0V60.709h1.913V64.42Zm-3.6,0V60.709h1.913V64.42Zm-8.988,0V60.709h7.306V64.42Zm10.9-25.282v3.711h-1.913V39.139Zm3.6,0v3.711h-1.913V39.139Zm3.6,0v3.711h-1.913V39.139Zm3.6,0v3.711h-1.913V39.139Zm0,5.393v3.711H145.973V44.531Zm-21.686,14.5V55.317h21.687v3.711Zm10.9-9.1v3.711h-1.913V49.924Zm3.6,0v3.711h-1.913V49.924Zm3.6,0v3.711h-1.913V49.924Zm-10.785,3.711h-7.306V49.924h7.306Zm12.467,0V49.924h1.913v3.711Zm0,7.074h1.913V64.42h-1.913Zm1.913-26.964v3.711H150.524a.841.841,0,0,0,0,1.682h2.754v3.711h-7.306V39.139h.956a.841.841,0,1,0,0-1.682h-.956V33.746Zm-21.686,41.46V71.495h17.135a.841.841,0,0,0,0-1.682H145.973V66.1h21.687v3.711H166.7a.841.841,0,1,0,0,1.682h.956v3.711Z" transform="translate(-140.696 -28.469)" fill="#fff" stroke="#fff" stroke-width="0.15"/>
      <path id="Path_62" data-name="Path 62" d="M236.9,448.9h-3.6a.841.841,0,1,0,0,1.682h3.6a.841.841,0,1,0,0-1.682Z" transform="translate(-218.986 -398.571)" fill="#fff" stroke="#fff" stroke-width="0.15"/>
    </g>
  </g>
</svg>
