<svg xmlns="http://www.w3.org/2000/svg" width="53.269" height="55.15" viewBox="0 0 53.269 55.15">
  <g id="Group_83" data-name="Group 83" transform="translate(0.125 0.125)">
    <path id="Path_63" data-name="Path 63" d="M153.907,164.924a16.719,16.719,0,1,1,16.655,16.751A16.773,16.773,0,0,1,153.907,164.924Zm23.192-7.379c-1.005.116-1.934.249-2.868.326a39.889,39.889,0,0,1-9.386-.269c-.511-.079-.736.044-.875.585a27.229,27.229,0,0,0-.548,10.8c.166,1.136.46,2.253.7,3.409a41,41,0,0,1,12.962,0A27.442,27.442,0,0,0,177.1,157.544Zm1.883,15.178c.563.15,1.04.266,1.509.4a10.935,10.935,0,0,1,1.4.463c.492.223.741.075,1.02-.356a14.634,14.634,0,0,0,1.717-13.113,12.672,12.672,0,0,0-2.117-3.974l-3.524,1.07A29.665,29.665,0,0,1,178.981,172.722Zm-16.723-.035a29.666,29.666,0,0,1-.011-15.472l-3.53-1.068a14.75,14.75,0,0,0-.208,17.291.674.674,0,0,0,.576.212C160.117,173.365,161.137,173.033,162.258,172.686Zm2.558,1.516a9.98,9.98,0,0,0,3.838,5.01,3.624,3.624,0,0,0,3.664.147c2.119-1.089,3.192-3.037,4.109-5.158A39.645,39.645,0,0,0,164.816,174.2Zm.009-18.5a39.334,39.334,0,0,0,11.586-.007,10.96,10.96,0,0,0-3.046-4.486,4.074,4.074,0,0,0-5.406-.058A11.069,11.069,0,0,0,164.825,155.705Zm-4.756-1.126c.852.25,1.6.466,2.348.692.339.1.513,0,.667-.332.386-.828.817-1.635,1.242-2.444a7.3,7.3,0,0,1,.4-.617l.455-.691A14.639,14.639,0,0,0,160.07,154.579Zm16.182-3.315c.663,1.273,1.288,2.5,1.948,3.709a.657.657,0,0,0,.535.295c.795-.184,1.573-.434,2.446-.687A14.425,14.425,0,0,0,176.251,151.264Zm-13.479,23.285-2.712.778a14.024,14.024,0,0,0,4.967,3.3Zm13.439,4.114a14.217,14.217,0,0,0,4.949-3.35l-2.692-.758Z" transform="translate(-143.304 -133.225)" fill="#fff" stroke="#fff" stroke-width="0.25"/>
    <path id="Path_64" data-name="Path 64" d="M51.082,10.011V1.943H1.925V10.09h.74c17.7,0,21.041.046,38.742.048a6.488,6.488,0,0,1,.807.017.861.861,0,0,1,.835.889.868.868,0,0,1-.772.947,4.171,4.171,0,0,1-.8.034c-17.678,0-21-.043-38.675-.043H1.892v2.623c0,1.162-.266,1.633-.932,1.654S0,15.8,0,14.588V1.466C0,.238.234,0,1.434,0H51.472C52.758,0,53,.246,53,1.527V47.017c0,1.039-.281,1.5-.929,1.517-.668.022-.968-.439-.968-1.527q0-17.026,0-34.05v-.969c-.661,0-1.277.005-1.894,0-.8-.009-1.21-.336-1.215-.943s.4-.934,1.2-.947c.561-.009,1.122-.009,1.682-.016A1.086,1.086,0,0,0,51.082,10.011Z" transform="translate(0 0)" fill="#fff" stroke="#fff" stroke-width="0.25"/>
    <path id="Path_65" data-name="Path 65" d="M1.892,216.712H51.115c0-.416-.007-.811,0-1.2a.936.936,0,1,1,1.869-.064,18.44,18.44,0,0,1,0,2.219c-.045.71-.447.984-1.334.985q-4.341.009-8.681.007c-17.7,0-23.785,0-41.484-.005-1.232,0-1.486-.259-1.486-1.5q0-16.757,0-33.509a5.01,5.01,0,0,1,.018-.6.86.86,0,0,1,.823-.829.855.855,0,0,1,.989.712,3.339,3.339,0,0,1,.06.8q0,16.048,0,32.094C1.892,216.1,1.892,216.383,1.892,216.712Z" transform="translate(0 -163.754)" fill="#fff" stroke="#fff" stroke-width="0.25"/>
    <path id="Path_66" data-name="Path 66" d="M38.7,33.453a2.829,2.829,0,1,1,5.657.016,2.829,2.829,0,0,1-5.657-.016Zm2.886-.934a.929.929,0,1,0-.088,1.856.91.91,0,0,0,.953-.852A.94.94,0,0,0,41.586,32.518Z" transform="translate(-34.783 -27.52)" fill="#fff" stroke="#fff" stroke-width="0.25"/>
    <path id="Path_67" data-name="Path 67" d="M119.022,33.457A2.831,2.831,0,0,1,116.2,36.27a2.831,2.831,0,1,1,.039-5.662A2.822,2.822,0,0,1,119.022,33.457Zm-1.9-.024a.934.934,0,0,0-.943-.929.957.957,0,0,0-.919.966.974.974,0,0,0,.921.9A.948.948,0,0,0,117.122,33.432Z" transform="translate(-101.885 -27.51)" fill="#fff" stroke="#fff" stroke-width="0.25"/>
    <path id="Path_68" data-name="Path 68" d="M190.923,30.58a2.83,2.83,0,1,1,0,5.66,2.83,2.83,0,0,1,0-5.66Zm.937,2.807a.916.916,0,0,0-.956-.909.931.931,0,0,0-.886.985.952.952,0,0,0,.929.884A.935.935,0,0,0,191.86,33.387Z" transform="translate(-169.059 -27.485)" fill="#fff" stroke="#fff" stroke-width="0.25"/>
    <path id="Path_69" data-name="Path 69" d="M318.9,273.952c0,.8.008,1.533,0,2.266-.011.752-.333,1.172-.895,1.2-.585.027-.988-.423-.993-1.186q-.021-3.23-.005-6.46c.005-.853.354-1.191,1.186-1.2q1.616-.015,3.231,0c.8.009,1.147.341,1.165,1.15.022,1.009.02,2.019,0,3.029-.015.843-.362,1.181-1.2,1.194C320.59,273.963,319.788,273.952,318.9,273.952Zm.054-3.458v1.516h1.7v-1.516Z" transform="translate(-289.889 -241.38)" fill="#fff" stroke="#fff" stroke-width="0.25"/>
    <path id="Path_70" data-name="Path 70" d="M279.236,273.175c0,1.121.027,2.242-.01,3.362-.028.859-.8,1.33-1.415.865a1.233,1.233,0,0,1-.443-.839c-.036-2.263-.034-4.527-.013-6.79a.941.941,0,0,1,.925-1.033c.549-.008.935.394.951,1.074C279.254,270.933,279.237,272.054,279.236,273.175Z" transform="translate(-254.242 -241.536)" fill="#fff" stroke="#fff" stroke-width="0.25"/>
  </g>
</svg>
