<svg xmlns="http://www.w3.org/2000/svg" width="178.024" height="59.902" viewBox="0 0 178.024 59.902">
  <g id="gsplogowhite" transform="translate(0.005 -0.003)">
    <g id="Group_148" data-name="Group 148">
      <path id="Path_1" data-name="Path 1" d="M43.144,14.353,39.173,19.1l4.249,3.577L36,31.514,27.72,24.564l6.76-8.054L32.324,14.7,36.992,9.14Z" transform="translate(7.441 2.452)" fill="#fff" fill-rule="evenodd"/>
      <path id="Path_2" data-name="Path 2" d="M21.2,27.421l2.207,1.852,5.048,4.236-2.042,2.435-7.889-6.608,3.754-4.49-1.471-1.23,3.234-3.856,1.078.9,2.283-2.828-2.727-2.283-2.334,2.778.685.571L19.884,22.64l-3.006-2.524L12.5,25.341,9.09,22.475l4.236-5.048,2.727,2.3,8.092-9.652,8.283,6.951-4.756,5.67,6.012,5.048-3.945,4.718L24.463,28.03l.71-.863-2.22-1.852Z" transform="translate(2.441 2.702)" fill="#fff" fill-rule="evenodd"/>
      <rect id="Rectangle_3" data-name="Rectangle 3" width="5.632" height="5.112" transform="translate(6.797 36.485) rotate(-49.998)" fill="#fff"/>
      <path id="Path_3" data-name="Path 3" d="M5.529,21.915,6.874,20.3l1.294,1.04L6.62,23.2l.393.33L5.935,24.807l-1.116-.939,1.256-1.5Zm-.723-.254,2.08-2.511,2.308,1.877L7.8,22.714l.7.583L6.328,25.885,4.02,23.944l1.459-1.738Z" transform="translate(1.08 5.139)" fill="#fff" fill-rule="evenodd"/>
      <path id="Path_4" data-name="Path 4" d="M25.625,35.479,17.608,28.82c-1.788,4.769-.152,11.644,3.729,15.741l.622-.71,1.484,1.243-.622.723C30.444,49.533,37.459,48,43.5,40.375L42.253,39.31l3.12-3.716,2.981,2.5-3.12,3.729L44.5,41.2c-5.873,7.585-13.61,10.185-22.362,5.5l-1.18,1.408-2.232-1.9L19.892,44.8c-3.12-4.16-4.655-8.384-4.414-12.62l-3.7,4.376,4.351,3.666L13,43.952l-3.729-3.12L11.14,38.6,7.423,35.466l-.634.736,2.993,2.511L8.514,40.223,5.572,37.737l-.622.748,3.678,3.12L6.8,43.825l5.188,4.351L13.233,46.7,17.7,50.382l.634-.748L21.3,52.107l1.877-2.194,2.448,1.852c3.285,1.078,5.873-.127,7.965-2.029l1.509,1.23.622-.685,1.991,1.649a16.624,16.624,0,0,0,5.226-4.465l.8.66,3.7-4.5-1.433-1.2,2.524-2.968,2.207,1.865,4.985-5.961-2.955-2.511L50.891,35.1,45.64,30.71l-8.1,9.665.748.634c-3.209,4.11-6.063,6.532-9.564,4.718l-6.837-5.8Z" transform="translate(1.33 7.734)" fill="#fff" fill-rule="evenodd"/>
      <path id="Path_5" data-name="Path 5" d="M24.916,37.329l-1.56-1.306L20.87,38.965,26.045,43.3l4.947-5.9-5.15-4.325-1.826,2.182,3.678,3.044-1.865,2.22-2.118-1.763Z" transform="translate(5.603 8.877)" fill="#fff" fill-rule="evenodd"/>
      <path id="Path_6" data-name="Path 6" d="M31.345,36.015,26.83,32.222l1.877-2.232,7.23.558Z" transform="translate(7.202 8.048)" fill="#fff" fill-rule="evenodd"/>
      <path id="Path_7" data-name="Path 7" d="M30.764,27.44l2.511,2.106-.837,1L30.7,29.076l-.66.786-.761-.66Z" transform="translate(7.86 7.364)" fill="#fff" fill-rule="evenodd"/>
      <path id="Path_8" data-name="Path 8" d="M41.045,28.608l-1.662,1.966-1.826,2.182,2.955,2.461,3.158-3.767L46.7,34.011c2.968-4.338,3.945-8.587.228-12.341l-3.158,3.767-2.816-2.359L35.54,29.445l3.171.19,3.425-4.084,2.321,1.941-1.991,2.27Z" transform="translate(9.54 5.815)" fill="#fff" fill-rule="evenodd"/>
      <rect id="Rectangle_4" data-name="Rectangle 4" width="2.245" height="2.435" transform="matrix(0.643, -0.766, 0.766, 0.643, 54.203, 18.781)" fill="#fff"/>
      <path id="Path_9" data-name="Path 9" d="M41.032,18.028,39.7,19.575l2.588,2.169,2.537-3.019L44,18.04l.7-.812-2.981-2.5L39.18,17.749l.8.672,1.928-2.3,1.319,1.192-1.256,1.5Z" transform="translate(10.517 3.953)" fill="#fff" fill-rule="evenodd"/>
      <rect id="Rectangle_5" data-name="Rectangle 5" width="3.615" height="5.594" transform="matrix(0.643, -0.766, 0.766, 0.643, 48.385, 13.062)" fill="#fff"/>
      <rect id="Rectangle_6" data-name="Rectangle 6" width="2.879" height="5.733" transform="translate(43.538 6.379) rotate(-49.998)" fill="#fff"/>
      <rect id="Rectangle_7" data-name="Rectangle 7" width="6.722" height="7.762" transform="matrix(0.643, -0.766, 0.766, 0.643, 33.495, 9.274)" fill="#fff"/>
      <rect id="Rectangle_8" data-name="Rectangle 8" width="3.843" height="5.809" transform="translate(34.967 2.946) rotate(-49.998)" fill="#fff"/>
      <path id="Path_10" data-name="Path 10" d="M23.413,9.738l4.021-4.553A9.593,9.593,0,0,1,30.465,2.9c-3.031-1.776-6.558-3.31-9.3-2.549L16.83,5.464,18.314,6.72,22.7,1.57l2.232,1.852L22.411,6.377l-.977-.748L20.217,7.087Z" transform="translate(4.518 0.04)" fill="#fff" fill-rule="evenodd"/>
      <rect id="Rectangle_9" data-name="Rectangle 9" width="2.131" height="1.662" transform="matrix(0.643, -0.766, 0.766, 0.643, 7.356, 19.373)" fill="#fff"/>
      <rect id="Rectangle_10" data-name="Rectangle 10" width="1.953" height="1.015" transform="matrix(0.643, -0.766, 0.766, 0.643, 3.638, 16.028)" fill="#fff"/>
      <rect id="Rectangle_11" data-name="Rectangle 11" width="2.892" height="0.926" transform="matrix(0.643, -0.766, 0.766, 0.643, 9.273, 9.362)" fill="#fff"/>
      <rect id="Rectangle_12" data-name="Rectangle 12" width="3.831" height="1.903" transform="translate(15.157 5.397) rotate(-49.998)" fill="#fff"/>
      <rect id="Rectangle_13" data-name="Rectangle 13" width="2.714" height="1.814" transform="translate(-0.005 29.411) rotate(-49.998)" fill="#fff"/>
      <rect id="Rectangle_14" data-name="Rectangle 14" width="2.131" height="1.662" transform="matrix(0.643, -0.766, 0.766, 0.643, 12.034, 12.592)" fill="#fff"/>
      <rect id="Rectangle_15" data-name="Rectangle 15" width="5.809" height="1.89" transform="translate(18.049 14.195) rotate(-50.006)" fill="#fff"/>
      <rect id="Rectangle_16" data-name="Rectangle 16" width="5.809" height="0.951" transform="translate(15.742 12.22) rotate(-49.998)" fill="#fff"/>
      <path id="Path_11" data-name="Path 11" d="M1.384,29.41a7.082,7.082,0,0,0,1.027,5.556l2.334-2.752Z" transform="translate(0.33 7.892)" fill="#fff" fill-rule="evenodd"/>
      <path id="Path_12" data-name="Path 12" d="M47.117,22.318a5.781,5.781,0,0,0-.837-4.858L44.25,19.87Z" transform="translate(11.877 4.685)" fill="#fff" fill-rule="evenodd"/>
    </g>
    <path id="Path_13" data-name="Path 13" d="M129.224,10.423h19.241q10.464,0,14.523,9.145a14.988,14.988,0,0,1,.977,5.467,14.307,14.307,0,0,1-4.756,10.654,15.52,15.52,0,0,1-7.179,3.5,22.745,22.745,0,0,1-3.31.216l-12.57.14v5.429h-6.989V32.708h19c2.486,0,4.3-.469,5.441-1.4a7.877,7.877,0,0,0,3.171-4.566,7.622,7.622,0,0,0,.19-1.471v-.723a7.824,7.824,0,0,0-2.334-5.276,7.967,7.967,0,0,0-5.378-2.144H129.186v-6.71Zm-27.46,0h23.313v7.1H101.535a3.157,3.157,0,0,0-3.387,2.714v.507a3.158,3.158,0,0,0,1.8,2.689,3.215,3.215,0,0,0,1.154.216h11.834c3.044,0,5.1.317,6.19.939a10.273,10.273,0,0,1,5.568,5.492,12.582,12.582,0,0,1,.862,4.439c0,3.463-1.611,6.367-4.845,8.739a12.246,12.246,0,0,1-3.31,1.421,24.145,24.145,0,0,1-4.63.317H90.792l-.025-7.116h23.617a3.615,3.615,0,0,0,3.792-2.93l.051-.647a3.468,3.468,0,0,0-2.042-3.171,3.974,3.974,0,0,0-1.852-.381H101.066A10.555,10.555,0,0,1,92.377,26.2a9.881,9.881,0,0,1-1.509-5.112v-.939q0-5.327,5.188-8.422A10.958,10.958,0,0,1,101.763,10.423ZM52.36,27.711a17.735,17.735,0,0,1,1.7-7.534,17.109,17.109,0,0,1,9.627-8.663,20.825,20.825,0,0,1,7.775-1.1h15.7v6.722H70.625q-7.477,0-10.426,6.431a10.141,10.141,0,0,0-.939,4.148,9.964,9.964,0,0,0,.939,4.148q2.949,6.431,10.426,6.431H77.55v6.7h-6.1a20.825,20.825,0,0,1-7.775-1.1,17.023,17.023,0,0,1-9.627-8.638A17.911,17.911,0,0,1,52.36,27.711Zm16.7-3.336h18.1V45H80.353V31.021H69.077V24.375Z" transform="translate(14.054 2.793)" fill="#fff"/>
    <path id="Path_14" data-name="Path 14" d="M160.03,41.331c.038-.013.089-.013.152-.025a1.461,1.461,0,0,1,.254-.013,1.082,1.082,0,0,1,.381.063.485.485,0,0,1,.254.19.574.574,0,0,1,.089.342.519.519,0,0,1-.089.317.608.608,0,0,1-.254.216.927.927,0,0,1-.381.076h-.419V41.331Zm-.419,2.854h.406V42.8h.393a.679.679,0,0,1,.3.063.449.449,0,0,1,.2.2,1.414,1.414,0,0,1,.127.355c.051.2.089.368.127.495a2.1,2.1,0,0,0,.089.266h.431a2.01,2.01,0,0,1-.114-.317c-.038-.152-.089-.33-.14-.558a1.256,1.256,0,0,0-.165-.419.564.564,0,0,0-.292-.228V42.65a.886.886,0,0,0,.3-.165.786.786,0,0,0,.216-.279.828.828,0,0,0,.076-.368.969.969,0,0,0-.063-.342.648.648,0,0,0-.19-.266.72.72,0,0,0-.228-.152,1.739,1.739,0,0,0-.3-.089,3.413,3.413,0,0,0-.393-.025,1.964,1.964,0,0,0-.279.013,1.726,1.726,0,0,0-.266.025q-.133.019-.228.038v3.146Zm-3.158-1.839H155.21v-1h1.306V41h-1.725v3.184h1.788v-.342H155.2V42.688h1.243v-.342Zm-6.875-1a.883.883,0,0,1,.2-.025,1.877,1.877,0,0,1,.279-.013,1.527,1.527,0,0,1,.723.152,1.011,1.011,0,0,1,.431.431,1.49,1.49,0,0,1,.14.66,1.618,1.618,0,0,1-.152.736,1,1,0,0,1-.457.457,1.813,1.813,0,0,1-.748.165h-.228c-.076,0-.14-.013-.19-.013V41.343Zm-.406,2.828a2.7,2.7,0,0,0,.342.025c.127.013.254.013.406.013a2.731,2.731,0,0,0,.571-.051,2.264,2.264,0,0,0,.469-.152,1.06,1.06,0,0,0,.355-.254,1.479,1.479,0,0,0,.342-.533,2.035,2.035,0,0,0,.114-.71,1.82,1.82,0,0,0-.114-.672,1.419,1.419,0,0,0-.33-.482,1.349,1.349,0,0,0-.533-.292,2.7,2.7,0,0,0-.761-.1c-.165,0-.317.013-.469.013a3.541,3.541,0,0,0-.406.051v3.146ZM145.545,41v3.184h.406V41Zm-3.97,3.184L142.717,41h-.444l-.545,1.573c-.076.2-.14.406-.2.609s-.114.393-.165.571h-.013a4.748,4.748,0,0,0-.152-.571c-.063-.2-.127-.406-.19-.622l-.495-1.573h-.444l1.04,3.184h.469Zm-5.619-2.9a.828.828,0,0,1,.368.076.929.929,0,0,1,.292.2,1.2,1.2,0,0,1,.2.292,1.659,1.659,0,0,1,.114.355,1.935,1.935,0,0,1,.038.381,2.136,2.136,0,0,1-.063.507,1.287,1.287,0,0,1-.2.419.992.992,0,0,1-.317.292.941.941,0,0,1-.431.1,1.042,1.042,0,0,1-.355-.063,1.085,1.085,0,0,1-.279-.19,1.126,1.126,0,0,1-.2-.279,1.689,1.689,0,0,1-.127-.355,1.97,1.97,0,0,1-.038-.393,2.1,2.1,0,0,1,.038-.406,1.266,1.266,0,0,1,.127-.368,1.2,1.2,0,0,1,.2-.292.687.687,0,0,1,.279-.19A.644.644,0,0,1,135.956,41.28Zm.013-.33a1.559,1.559,0,0,0-.6.114,1.356,1.356,0,0,0-.469.342,1.3,1.3,0,0,0-.3.533,1.94,1.94,0,0,0-.114.685,2.178,2.178,0,0,0,.1.66,1.333,1.333,0,0,0,.292.507,1.319,1.319,0,0,0,.457.33,1.451,1.451,0,0,0,.583.114,1.9,1.9,0,0,0,.469-.063,1.521,1.521,0,0,0,.406-.2,1.175,1.175,0,0,0,.317-.342,1.77,1.77,0,0,0,.216-.469,2.19,2.19,0,0,0,.076-.6,2.035,2.035,0,0,0-.1-.647,1.437,1.437,0,0,0-.292-.507,1.319,1.319,0,0,0-.457-.33A1.2,1.2,0,0,0,135.969,40.95Zm-5.923.381c.038-.013.089-.013.152-.025a1.461,1.461,0,0,1,.254-.013,1.082,1.082,0,0,1,.381.063.485.485,0,0,1,.254.19.574.574,0,0,1,.089.342.519.519,0,0,1-.089.317.608.608,0,0,1-.254.216.927.927,0,0,1-.381.076h-.419V41.331Zm-.406,2.854h.406V42.8h.393a.679.679,0,0,1,.3.063.449.449,0,0,1,.2.2,1.414,1.414,0,0,1,.127.355c.051.2.089.368.127.495a2.1,2.1,0,0,0,.089.266h.431a2.009,2.009,0,0,1-.114-.317c-.038-.152-.089-.33-.14-.558a1.256,1.256,0,0,0-.165-.419.564.564,0,0,0-.292-.228V42.65a.886.886,0,0,0,.3-.165.787.787,0,0,0,.216-.279.828.828,0,0,0,.076-.368.968.968,0,0,0-.063-.342.648.648,0,0,0-.19-.266.72.72,0,0,0-.228-.152,1.739,1.739,0,0,0-.3-.089,3.413,3.413,0,0,0-.393-.025,1.964,1.964,0,0,0-.279.013,1.726,1.726,0,0,0-.266.025q-.133.019-.228.038v3.146Zm-4.592-2.854c.038-.013.089-.013.152-.025a1.309,1.309,0,0,1,.241-.013,1.216,1.216,0,0,1,.393.063.623.623,0,0,1,.266.2.59.59,0,0,1,.089.355.662.662,0,0,1-.1.368.56.56,0,0,1-.279.228,1.093,1.093,0,0,1-.431.076.96.96,0,0,1-.19-.013.637.637,0,0,1-.152-.025V41.331Zm-.406,2.854h.406V42.9c.051.013.1.013.152.025h.178a1.758,1.758,0,0,0,.381-.038,1.449,1.449,0,0,0,.33-.114.784.784,0,0,0,.254-.19.859.859,0,0,0,.178-.292,1.2,1.2,0,0,0,.063-.381.927.927,0,0,0-.076-.381.756.756,0,0,0-.2-.279.782.782,0,0,0-.368-.19A1.706,1.706,0,0,0,125.4,41c-.165,0-.317.013-.444.013s-.241.025-.342.038v3.133Zm-6.177-1.839h-1.243v-1h1.306V41H116.8v3.184h1.788v-.342H117.21V42.688h1.243v-.342Zm-4.731,1.408a1.357,1.357,0,0,1-.419.127,1.617,1.617,0,0,1-.254.013,1.357,1.357,0,0,1-.52-.089,1.176,1.176,0,0,1-.381-.254,1.08,1.08,0,0,1-.241-.406,1.686,1.686,0,0,1-.076-.533,1.517,1.517,0,0,1,.089-.558,1.086,1.086,0,0,1,.647-.66,1.292,1.292,0,0,1,.507-.089,1.722,1.722,0,0,1,.368.038,1.206,1.206,0,0,1,.279.089l.1-.33a.921.921,0,0,0-.152-.063,1.113,1.113,0,0,0-.254-.051,2.7,2.7,0,0,0-.342-.025,1.63,1.63,0,0,0-.672.127,1.331,1.331,0,0,0-.52.342,1.479,1.479,0,0,0-.342.533,2.269,2.269,0,0,0-.127.685,1.962,1.962,0,0,0,.114.7,1.407,1.407,0,0,0,.33.507,1.247,1.247,0,0,0,.495.3,1.934,1.934,0,0,0,.621.1,2.918,2.918,0,0,0,.355-.025c.114-.013.2-.038.292-.051a1.749,1.749,0,0,0,.2-.076ZM107.976,41v3.184h.406V41Zm-3.97,3.184L105.147,41H104.7l-.533,1.573c-.076.2-.14.406-.2.609s-.114.393-.165.571h-.013a4.747,4.747,0,0,0-.152-.571c-.063-.19-.127-.406-.19-.622l-.495-1.573h-.444l1.04,3.184h.457Zm-5.847-2.854c.038-.013.089-.013.152-.025a1.461,1.461,0,0,1,.254-.013,1.082,1.082,0,0,1,.381.063.485.485,0,0,1,.254.19.574.574,0,0,1,.089.342.519.519,0,0,1-.089.317.608.608,0,0,1-.254.216.927.927,0,0,1-.381.076h-.406Zm-.419,2.854h.406V42.8h.393a.679.679,0,0,1,.3.063.449.449,0,0,1,.2.2,1.414,1.414,0,0,1,.127.355q.076.3.114.495a2.1,2.1,0,0,0,.089.266h.431a2.01,2.01,0,0,1-.114-.317c-.038-.152-.089-.33-.14-.558a1.256,1.256,0,0,0-.165-.419.564.564,0,0,0-.292-.228V42.65a.886.886,0,0,0,.3-.165.787.787,0,0,0,.216-.279.828.828,0,0,0,.076-.368.968.968,0,0,0-.063-.342.648.648,0,0,0-.19-.266.72.72,0,0,0-.228-.152,1.739,1.739,0,0,0-.3-.089,3.412,3.412,0,0,0-.393-.025,1.964,1.964,0,0,0-.279.013,1.726,1.726,0,0,0-.266.025q-.133.019-.228.038v3.146Zm-3.158-1.839H93.339v-1h1.306V41H92.92v3.184h1.788v-.342h-1.37V42.688h1.243Zm-6.634,1.687a.851.851,0,0,0,.216.1c.089.025.178.051.292.076a2.464,2.464,0,0,0,.3.025,1.448,1.448,0,0,0,.495-.076.91.91,0,0,0,.342-.2.76.76,0,0,0,.2-.292.841.841,0,0,0,.063-.355.833.833,0,0,0-.089-.406,1,1,0,0,0-.266-.3,1.532,1.532,0,0,0-.457-.228,1.9,1.9,0,0,1-.355-.165.592.592,0,0,1-.2-.19.536.536,0,0,1-.063-.254.391.391,0,0,1,.038-.165,1.057,1.057,0,0,1,.1-.152.478.478,0,0,1,.19-.114.872.872,0,0,1,.279-.038,1.726,1.726,0,0,1,.266.025.766.766,0,0,1,.2.063c.063.025.1.051.14.063l.114-.33a1.237,1.237,0,0,0-.178-.076,1.145,1.145,0,0,0-.241-.051,2.082,2.082,0,0,0-.292-.025,1.448,1.448,0,0,0-.419.063.916.916,0,0,0-.33.178.638.638,0,0,0-.2.279.755.755,0,0,0-.076.342.787.787,0,0,0,.1.393.8.8,0,0,0,.292.292,2.063,2.063,0,0,0,.444.216,1.431,1.431,0,0,1,.342.178.571.571,0,0,1,.19.2.578.578,0,0,1,.063.254.482.482,0,0,1-.076.279.574.574,0,0,1-.228.19.774.774,0,0,1-.355.063,1.9,1.9,0,0,1-.279-.025.842.842,0,0,1-.254-.076,1.124,1.124,0,0,1-.216-.1Zm-7.56.152h1.776v-.342H80.807V41H80.4v3.184Zm-4.782-1.319.317-.926c.025-.1.063-.19.089-.292s.051-.19.076-.292H76.1c.025.089.051.19.076.279s.051.19.089.3l.317.913h-.977Zm1.053.317.342,1h.444L76.355,41H75.86l-1.078,3.184h.431l.33-1Zm-6.291-.52h.342a1.278,1.278,0,0,1,.317.038.845.845,0,0,1,.266.114.509.509,0,0,1,.178.19.6.6,0,0,1,.063.279.661.661,0,0,1-.063.292.509.509,0,0,1-.178.19.615.615,0,0,1-.266.1.827.827,0,0,1-.3.025h-.2c-.063,0-.1-.013-.152-.013V42.662Zm0-1.344c.038-.013.076-.013.14-.025s.14-.013.228-.013a1.075,1.075,0,0,1,.368.051.483.483,0,0,1,.241.165.458.458,0,0,1,.089.3.477.477,0,0,1-.317.469,1.051,1.051,0,0,1-.368.076h-.368V41.318Zm-.406,2.854c.063.013.152.013.266.025a3.333,3.333,0,0,0,.381.013,2.481,2.481,0,0,0,.66-.076,1.132,1.132,0,0,0,.444-.228.729.729,0,0,0,.19-.279.877.877,0,0,0,.013-.685.965.965,0,0,0-.152-.241,1.385,1.385,0,0,0-.216-.165.85.85,0,0,0-.228-.089v-.013a1.089,1.089,0,0,0,.292-.165,1.137,1.137,0,0,0,.19-.241.752.752,0,0,0,.063-.292.667.667,0,0,0-.076-.33.679.679,0,0,0-.19-.228.665.665,0,0,0-.228-.127.983.983,0,0,0-.292-.076,2.953,2.953,0,0,0-.368-.025,1.965,1.965,0,0,0-.279.013,1.561,1.561,0,0,0-.254.025c-.076.013-.152.025-.216.038ZM65.485,41.28a.828.828,0,0,1,.368.076.929.929,0,0,1,.292.2,1.2,1.2,0,0,1,.2.292,1.66,1.66,0,0,1,.114.355,1.936,1.936,0,0,1,.038.381,2.136,2.136,0,0,1-.063.507,1.287,1.287,0,0,1-.2.419.993.993,0,0,1-.317.292.941.941,0,0,1-.431.1,1.041,1.041,0,0,1-.355-.063,1.085,1.085,0,0,1-.279-.19,1.126,1.126,0,0,1-.2-.279,1.689,1.689,0,0,1-.127-.355,1.969,1.969,0,0,1-.038-.393,2.1,2.1,0,0,1,.038-.406,1.266,1.266,0,0,1,.127-.368,1.2,1.2,0,0,1,.2-.292.687.687,0,0,1,.279-.19A.673.673,0,0,1,65.485,41.28Zm.025-.33a1.559,1.559,0,0,0-.6.114,1.356,1.356,0,0,0-.469.342,1.3,1.3,0,0,0-.3.533,1.939,1.939,0,0,0-.114.685,2.179,2.179,0,0,0,.1.66,1.334,1.334,0,0,0,.292.507,1.319,1.319,0,0,0,.457.33,1.451,1.451,0,0,0,.583.114,1.9,1.9,0,0,0,.469-.063,1.521,1.521,0,0,0,.406-.2,1.175,1.175,0,0,0,.317-.342,1.77,1.77,0,0,0,.216-.469,2.19,2.19,0,0,0,.076-.6,2.036,2.036,0,0,0-.1-.647,1.437,1.437,0,0,0-.292-.507,1.319,1.319,0,0,0-.457-.33A1.27,1.27,0,0,0,65.51,40.95Zm-5.822,3.234h1.776v-.342H60.107V41H59.7v3.184Zm-3.12-1.674H55.515v.33h.647v.951a1.308,1.308,0,0,1-.2.063,2.372,2.372,0,0,1-.342.025,1.292,1.292,0,0,1-.507-.089,1.165,1.165,0,0,1-.393-.254,1.1,1.1,0,0,1-.254-.406,1.492,1.492,0,0,1-.089-.545,1.381,1.381,0,0,1,.089-.533,1.465,1.465,0,0,1,.254-.406,1.1,1.1,0,0,1,.406-.254,1.381,1.381,0,0,1,.533-.089,2.15,2.15,0,0,1,.292.013,1.018,1.018,0,0,1,.228.051c.063.025.127.038.19.063l.1-.33a.668.668,0,0,0-.19-.063,1.422,1.422,0,0,0-.266-.051,2.7,2.7,0,0,0-.342-.025,1.882,1.882,0,0,0-.723.127,1.492,1.492,0,0,0-.888.863,2.176,2.176,0,0,0-.127.66,2.8,2.8,0,0,0,.051.469,1.923,1.923,0,0,0,.152.406,1,1,0,0,0,.241.317,1.272,1.272,0,0,0,.533.317,2.179,2.179,0,0,0,.66.1c.14,0,.279-.013.406-.025s.241-.038.33-.063a1.839,1.839,0,0,0,.241-.076V42.51Z" transform="translate(14.475 10.99)" fill="#fff"/>
  </g>
</svg>
